<svg width="136" height="46" viewBox="0 0 136 46" fill="none" xmlns="http://www.w3.org/2000/svg">
<path d="M76.4971 0.906616L57.5818 28.5945H57.514L54.4406 16.4118H50.7344L55.0282 33.2732H58.418L77.3784 0.906616H76.4971Z" fill="#777777"/>
<path d="M9.08475 18.0844C8.31638 18.0844 7.68362 18.22 7.16384 18.4009L6.14689 23.396C6.39548 23.396 6.91525 23.396 7.29943 23.396C8.83616 23.396 9.9209 23.1473 10.6215 22.6275C11.4576 22.0398 11.9774 21.0227 11.9774 20.0056C11.887 18.8529 10.9379 18.0844 9.08475 18.0844ZM6.82486 25.2494C6.44068 25.2494 5.9209 25.2494 5.67232 25.3172L4.51977 30.8999C4.97175 31.1034 5.60452 31.1486 6.44068 31.1486C7.72881 31.1486 8.67797 30.9452 9.44633 30.3123C10.2147 29.6794 10.6667 28.5719 10.6667 27.5548C10.6215 25.837 9.12994 25.2494 6.82486 25.2494ZM11.6384 24.3001C13.2429 24.8199 14.9153 26.0856 14.9153 28.1425C14.9153 29.8828 13.8983 31.4198 12.226 32.3013C10.6893 33.1376 8.63277 33.5218 6.14689 33.5218C3.66102 33.5218 1.26554 33.1376 0 32.5499L3.27684 16.9091C4.63277 16.3892 6.93785 15.9372 9.35593 15.9372C13.8305 15.9372 16.0226 17.6098 16.0226 20.0282C16.0678 22.3563 13.8757 23.848 11.6384 24.3001Z" fill="#777777"/>
<path d="M27.209 18.1296C26.6214 18.1296 25.9208 18.2652 25.5367 18.3782L24.1807 24.5939C24.4293 24.6617 24.9491 24.7295 25.4011 24.7295C27.9095 24.7295 30.0112 22.8761 30.0112 20.2994C30.0338 19.1693 29.3333 18.1296 27.209 18.1296ZM28.3615 25.5658L32.4519 33.1376H27.7061L24.0451 25.5206H23.9773L22.305 33.1376H18.0112L21.5367 16.9317C22.8926 16.4118 25.2429 15.9598 27.5028 15.9598C31.548 15.9598 34.305 17.5645 34.305 20.5028C34.3276 23.9158 30.9378 25.4528 28.3615 25.5658Z" fill="#777777"/>
<path d="M81.288 18.785H75.3445L74.3728 23.2603H79.5705L79.0507 25.7692H73.853L72.8361 30.6287H78.7344L78.2146 33.1375H67.9773L71.5479 16.2762H81.8078L81.288 18.785Z" fill="#171714"/>
<path d="M95.774 19.2371C95.322 18.9885 94.4181 18.7172 93.4011 18.7172C89.7401 18.7172 87.5028 22.8761 87.5028 26.289C87.5028 28.5945 88.5198 30.5157 90.8249 30.5157C91.7966 30.5157 92.7458 30.1992 93.3333 29.8828L93.8531 32.5047C92.8362 33.0923 91.2994 33.4766 89.4237 33.4766C84.9943 33.4766 82.9604 30.1992 82.9604 26.5602C82.9604 21.6329 86.4859 15.8467 92.904 15.8467C94.8927 15.8467 96.2938 16.2988 97.0621 16.8186L95.774 19.2371Z" fill="#171714"/>
<path d="M112 18.785H108.136L105.062 33.1375H100.768L103.842 18.785H99.9321L100.52 16.2762H112.565L112 18.785Z" fill="#171714"/>
<path d="M123.141 18.4686C121.605 18.4686 120.52 19.4405 119.751 20.7063C118.735 22.4466 117.966 25.5206 117.966 27.2383C117.966 29.0917 118.802 30.6287 120.588 30.6287C122.26 30.6287 123.412 29.5438 124.181 28.0746C125.085 26.3342 125.718 23.4637 125.718 21.859C125.695 20.0056 124.927 18.4686 123.141 18.4686ZM120.136 33.454C115.661 33.454 113.672 30.1766 113.672 26.6055C113.672 22.6953 115.977 15.892 123.548 15.892C128.023 15.892 130.011 19.1015 130.011 22.7405C129.989 26.7863 127.684 33.454 120.136 33.454Z" fill="#171714"/>
<path d="M45.6723 21.0905L47.2769 27.3061H41.3786L45.6723 21.0905ZM44.8362 16.4118L27.7966 45.4332H28.7684L39.7966 29.6116H47.8644L48.8136 33.3862H52.5198L48.226 16.5248H44.8362V16.4118Z" fill="#777777"/>
<path d="M133.514 15.2591C134.667 15.2591 135.571 16.1631 135.571 17.2478C135.571 18.3325 134.667 19.2365 133.514 19.2365C132.362 19.2365 131.458 18.3325 131.458 17.2478C131.412 16.1405 132.362 15.2591 133.514 15.2591ZM133.446 15.6433C132.61 15.6433 131.91 16.3438 131.91 17.2478C131.91 18.1518 132.542 18.8523 133.446 18.8523C134.282 18.8523 134.983 18.1518 134.983 17.2478C134.983 16.4116 134.35 15.6433 133.446 15.6433ZM133.198 18.3325H132.746V16.276C132.949 16.276 133.198 16.2082 133.514 16.2082C133.898 16.2082 134.102 16.276 134.215 16.3438C134.35 16.4116 134.418 16.5924 134.418 16.7958C134.418 17.0444 134.215 17.18 134.034 17.2478C134.237 17.3156 134.35 17.4512 134.418 17.7676C134.486 18.084 134.554 18.1518 134.554 18.2873H134.034C133.966 18.2196 133.898 18.0388 133.898 17.7676C133.83 17.5642 133.763 17.4512 133.514 17.4512H133.198V18.3325ZM133.198 17.18H133.401C133.65 17.18 133.853 17.1122 133.853 16.8636C133.853 16.6602 133.717 16.5472 133.401 16.5472C133.266 16.5472 133.198 16.5472 133.153 16.5472V17.18H133.198Z" fill="black"/>
</svg>
