<svg width="50" height="50" viewBox="0 0 50 50" fill="none" xmlns="http://www.w3.org/2000/svg">
<circle cx="25" cy="25" r="25" fill="white"/>
<mask id="path-2-inside-1_2_1304" fill="white">
<path fill-rule="evenodd" clip-rule="evenodd" d="M29.5404 44.3308C28.961 45.4284 27.7369 45.8558 26.8209 44.4784C26.3487 44.6464 25.7913 45.0847 25.2801 44.6409C24.6254 44.073 24.8136 41.916 27.4699 41.3254C30.6346 40.6215 32.2372 44.6136 29.5397 44.3308H29.5404ZM24.5402 29.5341C24.695 29.6302 24.891 29.5708 24.9783 29.4005C25.0663 29.231 25.0117 29.0154 24.8576 28.9185C24.7035 28.8224 24.5075 28.8825 24.4195 29.0521C24.3321 29.2216 24.3861 29.4372 24.5402 29.5341ZM24.7035 27.5544C24.8576 27.6505 25.0536 27.5912 25.1416 27.4216C25.2289 27.2513 25.175 27.0365 25.0202 26.9396C24.8654 26.8427 24.6701 26.9029 24.5821 27.0724C24.4947 27.2427 24.5487 27.4583 24.7035 27.5544ZM26.365 28.688C26.5191 28.7841 26.7151 28.7247 26.8031 28.5552C26.8905 28.3849 26.8365 28.1693 26.6817 28.0732C26.5269 27.9771 26.3317 28.0365 26.2436 28.2068C26.1563 28.3771 26.2102 28.5919 26.365 28.6888V28.688ZM14.1222 30.3622C14.2998 30.3622 14.4439 30.5208 14.4439 30.7153C14.4439 30.9099 14.2998 31.0692 14.1222 31.0692C13.9447 31.0692 13.8006 30.9114 13.8006 30.7153C13.8006 30.5192 13.9447 30.3622 14.1222 30.3622ZM13.3767 32.1723C13.5542 32.1723 13.6983 32.3309 13.6983 32.5262C13.6983 32.7216 13.5542 32.8794 13.3767 32.8794C13.1992 32.8794 13.055 32.7208 13.055 32.5262C13.055 32.3317 13.1985 32.1723 13.3767 32.1723ZM15.33 32.0872C15.5076 32.0872 15.6517 32.2458 15.6517 32.4411C15.6517 32.6364 15.5076 32.7942 15.33 32.7942C15.1525 32.7942 15.0084 32.6364 15.0084 32.4411C15.0084 32.2458 15.1525 32.0872 15.33 32.0872ZM41.3046 35.7036C41.1065 35.5864 40.9716 35.3575 40.9716 35.0926C40.9716 35.0528 40.9744 35.0137 40.9801 34.9762L39.8114 35.1622C39.9832 35.2864 40.0975 35.4997 40.0975 35.7434C40.0975 36.1262 39.8156 36.4364 39.4677 36.4364C39.1198 36.4364 38.8379 36.1262 38.8379 35.7434C38.8379 35.5317 38.9238 35.3426 39.0601 35.2153L37.9787 35.1176C38.027 35.2153 38.054 35.327 38.054 35.4465C38.054 35.8293 37.7721 36.1395 37.4241 36.1395C37.0762 36.1395 36.7943 35.8293 36.7943 35.4465C36.7943 35.2442 36.8731 35.0622 36.9988 34.9348L35.8968 34.6153C35.9401 34.7098 35.965 34.8168 35.965 34.9293C35.965 35.3122 35.6831 35.6223 35.3352 35.6223C34.9872 35.6223 34.7053 35.3122 34.7053 34.9293C34.7053 34.6528 34.8523 34.4145 35.0646 34.3028L34.1181 33.734C34.1195 33.7528 34.1203 33.7715 34.1203 33.7911C34.1203 34.1739 33.8384 34.484 33.4904 34.484C33.3321 34.484 33.1872 34.42 33.0772 34.3137C33.1872 34.8004 33.4698 35.4996 33.7248 35.8192C33.8398 35.645 34.0251 35.5317 34.236 35.5317C34.5839 35.5317 34.8658 35.8418 34.8658 36.2246C34.8658 36.4785 34.7423 36.6996 34.5577 36.8207C34.5321 36.8637 34.5044 36.909 34.4746 36.9574C34.76 37.5262 35.7491 38.4793 36.2724 38.9191C36.7127 39.2894 36.8511 39.3363 37.4185 38.9871C37.6776 38.8277 38.0731 38.6176 38.3692 38.4035C38.0795 38.341 37.8608 38.0606 37.8608 37.7238C37.8608 37.341 38.1427 37.0309 38.4907 37.0309C38.8386 37.0309 39.1205 37.341 39.1205 37.7238C39.1205 37.7715 39.1155 37.8176 39.1077 37.8629C39.7886 37.3801 40.8786 36.341 41.3039 35.7051L41.3046 35.7036ZM36.2291 36.7473C36.5763 36.7473 36.8589 37.0574 36.8589 37.4403C36.8589 37.8231 36.5771 38.1332 36.2291 38.1332C35.8812 38.1332 35.5993 37.8231 35.5993 37.4403C35.5993 37.0574 35.8812 36.7473 36.2291 36.7473ZM32.8762 33.6411C32.921 33.4161 33.0665 33.2317 33.2568 33.1481C33.0907 32.845 33.0509 32.8145 32.7037 32.6583C32.7143 33.0458 32.7314 33.3387 32.8762 33.6411ZM23.1158 36.9848L23.0697 36.9543C23.4013 36.6442 24.095 36.3035 24.5175 35.984C24.9868 35.6286 25.4775 35.2762 25.8744 34.9215C25.922 34.9926 27.6488 40.1691 27.8036 40.7277C26.6661 41.0199 26.1023 41.0425 25.1622 42.1582C24.5338 42.9042 24.2228 44.5581 25.2012 45.1136C25.9149 45.5191 26.2692 45.0191 26.664 45.1136C26.9643 45.4691 28.2957 46.5222 29.5908 45.0792C29.9742 44.6527 29.6178 44.9441 31.099 44.4558C32.103 46.0284 34.645 46.8972 35.1733 44.5816C35.8578 41.8871 32.747 40.3824 33.1333 37.7793C31.8147 40.7027 35.7534 41.6386 34.5236 45.0237C34.1515 44.548 34.2623 43.8433 33.1468 43.5839C33.8405 43.9355 34.0812 44.2644 34.0145 45.3956C32.3572 45.5956 32.1335 44.8917 31.302 44.1402C31.2843 43.3246 31.3695 43.0644 30.9896 42.391C28.6209 40.4965 29.152 35.6036 31.9894 31.7911C32.4538 32.4544 32.0036 34.0481 33.6736 36.6973C34.324 37.7285 35.24 39.1066 36.6963 39.9933C36.8873 40.1097 38.3415 39.0012 38.5886 38.8426C39.9974 37.9387 41.2222 36.6582 42.0821 35.559C42.2497 36.17 42.5969 36.7106 42.9889 37.0949C43.782 36.5223 43.6655 35.7145 43.618 35.1622L44.5822 35.0918C44.928 34.2075 44.4913 33.6645 43.76 33.4231C44.0135 33.0091 44.372 32.6817 44.6745 32.1372C44.916 31.7028 45.1297 30.9919 45.3853 30.5403C45.8951 30.7911 46.089 31.2185 46.5959 31.5122C45.9313 30.2583 45.391 30.7255 45.5053 29.5247C46.1245 29.7208 46.3765 30.1271 46.9687 30.3825C46.7167 29.7528 46.1742 29.5403 45.6246 29.1489C45.4371 28.0576 45.8632 27.8029 46.3304 27.1958C47.2833 25.9568 49.3602 22.9193 46.6819 22.5248C43.9595 22.1233 43.6386 23.1568 42.3953 22.1623C41.5325 21.4717 40.2942 20.8787 39.0466 20.6498C38.3479 20.5217 37.0691 20.6342 36.6672 20.5264C35.6313 20.2483 30.5799 13.5429 31.4597 22.5115C31.5811 23.7545 31.7877 23.4693 31.2978 24.4443C30.8817 25.2717 30.9044 25.231 30.1958 25.4185C29.1548 25.6927 30.7837 25.4935 30.8441 25.4857C30.5331 27.1693 30.8348 26.0373 29.6767 27.1693L30.5657 26.8529C30.4209 28.9552 30.832 29.4857 31.6329 31.3614C29.7129 35.0489 28.4604 36.8871 29.3572 40.8988L28.437 40.7769C27.712 39.2723 26.0952 34.0864 25.9262 32.2716C27.0623 31.0825 28.0159 30.2482 28.3255 27.949C28.6429 25.5873 27.9769 23.7912 26.8933 22.567C26.1002 21.6709 25.3915 21.2975 25.2588 20.8405C24.7049 18.935 24.6545 17.8819 23.3942 15.8843C22.694 14.7741 22.4753 14.7335 23.3572 13.6765C23.7194 13.9335 24.227 14.8866 24.6375 15.4179C25.0891 16.0022 25.5336 16.6163 26.0192 17.021C29.4168 19.8538 32.2173 15.203 31.1458 12.682C30.2845 10.6554 27.2569 9.10701 25.3873 8.36405C23.5532 7.63515 22.3617 7.80234 20.6846 10.8195C20.255 11.5937 19.8084 12.664 19.3759 13.3702C17.5738 13.5015 15.9783 14.1124 14.5774 14.9022C10.9944 16.9225 13.3291 16.8288 10.3795 16.01C10.7459 14.9976 11.887 13.8984 12.5154 13.1531C17.2486 7.54687 12.1753 3.98989 8.51919 7.23594C6.24275 9.25701 5.29766 14.8288 6.5715 17.1764C7.0799 18.1131 8.56179 19.3592 9.4593 19.7233C9.31303 21.699 9.6851 23.2584 10.2326 24.8935C10.66 26.1685 10.8531 25.7498 10.3795 26.9248C10.1197 27.5685 9.91019 28.3794 9.82356 29.1599C9.38972 33.0606 11.2827 35.3637 14.5142 35.6746L14.5447 36.7965C11.9907 36.4567 10.2198 39.7637 13.104 40.4683C14.1989 43.3042 15.5388 42.0324 16.2403 42.3519C16.8055 42.6097 17.4212 42.9347 18.041 42.1261C19.584 40.4301 17.8401 38.5301 17.441 38.0574C20.4758 38.127 19.2595 38.0402 21.695 37.5863L21.6474 37.7645C21.5224 38.0004 21.4514 38.2746 21.4514 38.5668C21.4514 39.4496 22.1019 40.1644 22.9042 40.1644C23.7066 40.1644 24.3563 39.4488 24.3563 38.5668C24.3563 37.7629 23.8173 37.0981 23.1151 36.9856L23.1158 36.9848ZM36.969 21.0865L37.5818 21.0795C37.6265 23.6623 38.4772 21.1686 39.2362 21.1858C39.3896 21.5373 39.2717 21.7334 39.2064 22.2209C39.0275 23.5521 39.4563 23.6498 40.0499 22.4928C41.0291 20.5834 40.9148 22.3131 40.9666 23.2576C41.6646 23.2092 41.4999 22.8818 41.9557 22.4451C43.2637 23.4061 42.7702 23.085 44.556 22.9686C45.0523 22.9357 45.5877 22.9029 46.0975 22.9373C47.3564 23.0217 47.8421 23.2076 47.3159 24.6459C46.8729 25.8568 45.8227 27.0935 45.4102 27.5622L44.916 26.0263H44.7534C44.8116 26.9857 45.1332 27.8224 45.0629 28.8513C44.044 28.149 43.0542 28.1404 42.0693 28.2693C42.7815 28.2443 45.2291 28.3833 45.0445 29.8161C44 29.413 43.4192 28.8505 42.0736 28.6411C40.7664 30.4325 38.8144 30.4083 37.9382 29.9302C38.4502 28.1513 38.2322 28.3357 38.9543 28.181C41.5652 27.6224 38.9032 25.8857 37.1799 26.2537C36.8298 27.1482 37.5101 27.7341 38.0646 28.088L37.6201 29.7958C37.2331 30.4091 33.1311 26.4779 35.0668 26.2802C33.4464 25.9724 32.8045 25.9732 31.1409 26.2779L31.3972 25.456C32.938 25.2638 34.3461 25.799 35.2166 25.8693C33.8554 25.1584 32.5326 25.1224 31.5676 25.0771C31.7387 24.2764 32.9551 23.0146 33.3349 22.2576C32.7115 22.5154 32.4168 22.9498 32.0114 23.3045C31.8381 22.0154 31.5761 20.1936 32.0256 18.9959C32.3359 18.1671 32.6291 18.285 33.3399 18.6366C33.9001 18.9139 34.4504 19.3444 34.7778 19.6131C36.0303 20.6428 36.0722 21.0553 36.969 21.0842V21.0865ZM40.7962 25.5888C41.2137 24.6232 42.734 24.8678 42.9413 26.2123L42.4947 25.8201C41.9792 25.3443 41.4076 25.3795 40.7955 25.5888H40.7962ZM35.2514 23.7537C35.5965 22.8006 37.182 22.9686 37.3666 24.3943C37.0102 24.0615 36.9236 23.8615 36.3953 23.7037C36.0566 23.6029 35.6256 23.6014 35.2514 23.7537ZM38.5922 31.3067C37.8814 31.8802 36.4713 31.2794 36.1517 30.4224C37.0443 30.7106 37.5456 31.0911 38.5922 31.3067ZM43.6542 24.1349C43.9268 23.817 43.9922 23.7881 44.4246 23.6717C47.2449 22.9061 47.0795 24.9771 45.7204 25.6084C45.9505 25.1748 46.231 24.8849 46.1635 24.2592C45.413 23.9365 44.4778 24.0912 43.6542 24.1349ZM13.3568 24.2381C13.283 22.4381 14.2515 21.6053 15.8491 21.9881C14.8117 22.3998 14.3608 22.0553 13.3568 24.2381ZM32.3714 21.0365C31.9446 17.528 34.6798 19.8952 35.071 21.4928C34.099 20.7967 33.6793 19.9569 32.8556 19.8202C32.5652 20.2834 32.6625 20.4092 32.5439 20.7381C32.4459 21.0115 32.4928 20.8717 32.3707 21.0373L32.3714 21.0365ZM19.6124 21.3287C19.8112 20.7061 20.3111 20.2108 21.1482 20.1998C21.9037 20.1905 22.53 20.6897 22.7395 21.3311C21.6325 20.7811 20.9239 20.6006 19.6124 21.3287ZM16.06 41.63C14.7627 42.3121 13.6572 41.6175 13.5656 39.9715C10.535 39.9605 12.4252 35.9161 15.9648 37.7113C19.2361 39.3715 18.0907 43.6191 16.0607 41.63H16.06ZM16.1573 35.6223C16.868 35.2528 17.2344 35.3551 18.5778 34.5129L19.2645 35.6129C18.1262 35.7536 17.2948 35.7426 16.1573 35.6215V35.6223ZM42.609 34.9434C43.3126 34.9114 43.2026 35.9184 43.0726 36.4215C42.7439 36.1606 42.4684 35.6075 42.609 34.9434ZM42.8078 34.3528C43.0222 33.738 44.0497 33.627 44.2315 34.6481C43.4426 34.7083 43.3986 34.7387 42.8078 34.3528ZM24.7425 32.9161C24.4656 33.3489 23.6796 33.8356 23.2905 34.0692L23.3274 33.2223L24.7425 32.9161ZM21.1411 33.9575L21.0261 32.77C21.3705 32.8497 21.6623 32.9637 21.9946 33.038L22.7551 33.263C22.7707 33.2333 22.8162 33.2926 22.8439 33.3122C22.8155 36.627 19.7097 36.3559 19.0479 34.2223C19.2574 33.9294 20.1946 33.12 20.4737 32.9075L21.1404 33.9575H21.1411ZM42.4052 29.213C42.9555 29.2654 44.5496 29.8122 44.9131 30.1896C43.9758 36.1309 35.8514 35.5778 32.5986 31.7661C31.4852 30.4607 30.6594 28.5271 31.0762 26.7076C31.8211 26.3115 33.1581 26.2818 34.0322 26.4076C34.7714 30.3974 40.1316 32.613 42.4052 29.2138V29.213ZM19.1544 25.2076C21.2867 24.6857 21.0765 27.0419 19.0877 27.5404C17.0463 28.0513 16.7345 25.8006 19.1544 25.2076ZM9.30309 16.8093C10.212 16.3319 10.3192 16.5382 11.2423 16.8889C12.4018 17.3303 12.1781 17.1811 12.9748 16.6233C15.0787 15.2507 17.3786 13.6101 20.4836 14.0859C20.0114 13.1679 20.0477 13.1999 20.5028 12.3054C20.9608 11.4062 21.8263 9.86637 22.4356 9.23201C24.4308 7.15781 29.228 10.8914 30.1894 12.1749C32.1555 14.7999 29.2337 18.1874 27.1951 17.1632C25.6713 16.3968 23.9132 13.3773 22.9532 11.7335L23.1534 13.146C21.1241 14.8687 23.0398 15.4163 24.2391 18.9788C24.5295 19.842 24.5707 20.4451 24.7923 21.2209C24.9414 21.7412 25.1288 21.6865 25.5243 21.9865C26.2109 22.5068 26.9473 23.3873 27.3556 24.2662C27.8249 25.274 28.1863 27.9654 27.538 28.8888C26.659 32.6848 22.2708 33.3458 20.7563 31.8809C21.9463 31.0817 22.4349 31.0724 23.1215 29.7646C24.1752 27.756 23.6824 24.9623 21.6389 24.049C20.3267 23.4631 18.482 23.806 17.3189 24.6779C13.6841 27.4052 16.0003 32.6942 20.4261 31.9208C19.9475 32.8005 18.4756 33.9965 17.3139 34.5614C14.6725 35.8457 10.8574 34.9786 10.3305 31.1716C10.0827 29.3841 10.562 27.488 11.2976 26.2677C10.9341 25.0068 10.3895 23.9498 10.0976 22.4412C9.95634 21.71 9.84131 20.8194 9.95847 20.0686C10.0501 19.4811 10.4697 18.8741 10.6983 18.3928C10.3696 18.6108 10.0139 18.771 9.73693 19.1506C8.51635 18.8436 6.77813 17.1194 6.57718 15.6499C6.25979 13.3327 7.19422 9.20623 8.62854 7.83359C11.8351 4.76566 16.2197 7.74453 12.5097 12.2265C11.3914 13.6015 10.0302 15.1288 9.30238 16.8093H9.30309Z"/>
</mask>
<path fill-rule="evenodd" clip-rule="evenodd" d="M29.5404 44.3308C28.961 45.4284 27.7369 45.8558 26.8209 44.4784C26.3487 44.6464 25.7913 45.0847 25.2801 44.6409C24.6254 44.073 24.8136 41.916 27.4699 41.3254C30.6346 40.6215 32.2372 44.6136 29.5397 44.3308H29.5404ZM24.5402 29.5341C24.695 29.6302 24.891 29.5708 24.9783 29.4005C25.0663 29.231 25.0117 29.0154 24.8576 28.9185C24.7035 28.8224 24.5075 28.8825 24.4195 29.0521C24.3321 29.2216 24.3861 29.4372 24.5402 29.5341ZM24.7035 27.5544C24.8576 27.6505 25.0536 27.5912 25.1416 27.4216C25.2289 27.2513 25.175 27.0365 25.0202 26.9396C24.8654 26.8427 24.6701 26.9029 24.5821 27.0724C24.4947 27.2427 24.5487 27.4583 24.7035 27.5544ZM26.365 28.688C26.5191 28.7841 26.7151 28.7247 26.8031 28.5552C26.8905 28.3849 26.8365 28.1693 26.6817 28.0732C26.5269 27.9771 26.3317 28.0365 26.2436 28.2068C26.1563 28.3771 26.2102 28.5919 26.365 28.6888V28.688ZM14.1222 30.3622C14.2998 30.3622 14.4439 30.5208 14.4439 30.7153C14.4439 30.9099 14.2998 31.0692 14.1222 31.0692C13.9447 31.0692 13.8006 30.9114 13.8006 30.7153C13.8006 30.5192 13.9447 30.3622 14.1222 30.3622ZM13.3767 32.1723C13.5542 32.1723 13.6983 32.3309 13.6983 32.5262C13.6983 32.7216 13.5542 32.8794 13.3767 32.8794C13.1992 32.8794 13.055 32.7208 13.055 32.5262C13.055 32.3317 13.1985 32.1723 13.3767 32.1723ZM15.33 32.0872C15.5076 32.0872 15.6517 32.2458 15.6517 32.4411C15.6517 32.6364 15.5076 32.7942 15.33 32.7942C15.1525 32.7942 15.0084 32.6364 15.0084 32.4411C15.0084 32.2458 15.1525 32.0872 15.33 32.0872ZM41.3046 35.7036C41.1065 35.5864 40.9716 35.3575 40.9716 35.0926C40.9716 35.0528 40.9744 35.0137 40.9801 34.9762L39.8114 35.1622C39.9832 35.2864 40.0975 35.4997 40.0975 35.7434C40.0975 36.1262 39.8156 36.4364 39.4677 36.4364C39.1198 36.4364 38.8379 36.1262 38.8379 35.7434C38.8379 35.5317 38.9238 35.3426 39.0601 35.2153L37.9787 35.1176C38.027 35.2153 38.054 35.327 38.054 35.4465C38.054 35.8293 37.7721 36.1395 37.4241 36.1395C37.0762 36.1395 36.7943 35.8293 36.7943 35.4465C36.7943 35.2442 36.8731 35.0622 36.9988 34.9348L35.8968 34.6153C35.9401 34.7098 35.965 34.8168 35.965 34.9293C35.965 35.3122 35.6831 35.6223 35.3352 35.6223C34.9872 35.6223 34.7053 35.3122 34.7053 34.9293C34.7053 34.6528 34.8523 34.4145 35.0646 34.3028L34.1181 33.734C34.1195 33.7528 34.1203 33.7715 34.1203 33.7911C34.1203 34.1739 33.8384 34.484 33.4904 34.484C33.3321 34.484 33.1872 34.42 33.0772 34.3137C33.1872 34.8004 33.4698 35.4996 33.7248 35.8192C33.8398 35.645 34.0251 35.5317 34.236 35.5317C34.5839 35.5317 34.8658 35.8418 34.8658 36.2246C34.8658 36.4785 34.7423 36.6996 34.5577 36.8207C34.5321 36.8637 34.5044 36.909 34.4746 36.9574C34.76 37.5262 35.7491 38.4793 36.2724 38.9191C36.7127 39.2894 36.8511 39.3363 37.4185 38.9871C37.6776 38.8277 38.0731 38.6176 38.3692 38.4035C38.0795 38.341 37.8608 38.0606 37.8608 37.7238C37.8608 37.341 38.1427 37.0309 38.4907 37.0309C38.8386 37.0309 39.1205 37.341 39.1205 37.7238C39.1205 37.7715 39.1155 37.8176 39.1077 37.8629C39.7886 37.3801 40.8786 36.341 41.3039 35.7051L41.3046 35.7036ZM36.2291 36.7473C36.5763 36.7473 36.8589 37.0574 36.8589 37.4403C36.8589 37.8231 36.5771 38.1332 36.2291 38.1332C35.8812 38.1332 35.5993 37.8231 35.5993 37.4403C35.5993 37.0574 35.8812 36.7473 36.2291 36.7473ZM32.8762 33.6411C32.921 33.4161 33.0665 33.2317 33.2568 33.1481C33.0907 32.845 33.0509 32.8145 32.7037 32.6583C32.7143 33.0458 32.7314 33.3387 32.8762 33.6411ZM23.1158 36.9848L23.0697 36.9543C23.4013 36.6442 24.095 36.3035 24.5175 35.984C24.9868 35.6286 25.4775 35.2762 25.8744 34.9215C25.922 34.9926 27.6488 40.1691 27.8036 40.7277C26.6661 41.0199 26.1023 41.0425 25.1622 42.1582C24.5338 42.9042 24.2228 44.5581 25.2012 45.1136C25.9149 45.5191 26.2692 45.0191 26.664 45.1136C26.9643 45.4691 28.2957 46.5222 29.5908 45.0792C29.9742 44.6527 29.6178 44.9441 31.099 44.4558C32.103 46.0284 34.645 46.8972 35.1733 44.5816C35.8578 41.8871 32.747 40.3824 33.1333 37.7793C31.8147 40.7027 35.7534 41.6386 34.5236 45.0237C34.1515 44.548 34.2623 43.8433 33.1468 43.5839C33.8405 43.9355 34.0812 44.2644 34.0145 45.3956C32.3572 45.5956 32.1335 44.8917 31.302 44.1402C31.2843 43.3246 31.3695 43.0644 30.9896 42.391C28.6209 40.4965 29.152 35.6036 31.9894 31.7911C32.4538 32.4544 32.0036 34.0481 33.6736 36.6973C34.324 37.7285 35.24 39.1066 36.6963 39.9933C36.8873 40.1097 38.3415 39.0012 38.5886 38.8426C39.9974 37.9387 41.2222 36.6582 42.0821 35.559C42.2497 36.17 42.5969 36.7106 42.9889 37.0949C43.782 36.5223 43.6655 35.7145 43.618 35.1622L44.5822 35.0918C44.928 34.2075 44.4913 33.6645 43.76 33.4231C44.0135 33.0091 44.372 32.6817 44.6745 32.1372C44.916 31.7028 45.1297 30.9919 45.3853 30.5403C45.8951 30.7911 46.089 31.2185 46.5959 31.5122C45.9313 30.2583 45.391 30.7255 45.5053 29.5247C46.1245 29.7208 46.3765 30.1271 46.9687 30.3825C46.7167 29.7528 46.1742 29.5403 45.6246 29.1489C45.4371 28.0576 45.8632 27.8029 46.3304 27.1958C47.2833 25.9568 49.3602 22.9193 46.6819 22.5248C43.9595 22.1233 43.6386 23.1568 42.3953 22.1623C41.5325 21.4717 40.2942 20.8787 39.0466 20.6498C38.3479 20.5217 37.0691 20.6342 36.6672 20.5264C35.6313 20.2483 30.5799 13.5429 31.4597 22.5115C31.5811 23.7545 31.7877 23.4693 31.2978 24.4443C30.8817 25.2717 30.9044 25.231 30.1958 25.4185C29.1548 25.6927 30.7837 25.4935 30.8441 25.4857C30.5331 27.1693 30.8348 26.0373 29.6767 27.1693L30.5657 26.8529C30.4209 28.9552 30.832 29.4857 31.6329 31.3614C29.7129 35.0489 28.4604 36.8871 29.3572 40.8988L28.437 40.7769C27.712 39.2723 26.0952 34.0864 25.9262 32.2716C27.0623 31.0825 28.0159 30.2482 28.3255 27.949C28.6429 25.5873 27.9769 23.7912 26.8933 22.567C26.1002 21.6709 25.3915 21.2975 25.2588 20.8405C24.7049 18.935 24.6545 17.8819 23.3942 15.8843C22.694 14.7741 22.4753 14.7335 23.3572 13.6765C23.7194 13.9335 24.227 14.8866 24.6375 15.4179C25.0891 16.0022 25.5336 16.6163 26.0192 17.021C29.4168 19.8538 32.2173 15.203 31.1458 12.682C30.2845 10.6554 27.2569 9.10701 25.3873 8.36405C23.5532 7.63515 22.3617 7.80234 20.6846 10.8195C20.255 11.5937 19.8084 12.664 19.3759 13.3702C17.5738 13.5015 15.9783 14.1124 14.5774 14.9022C10.9944 16.9225 13.3291 16.8288 10.3795 16.01C10.7459 14.9976 11.887 13.8984 12.5154 13.1531C17.2486 7.54687 12.1753 3.98989 8.51919 7.23594C6.24275 9.25701 5.29766 14.8288 6.5715 17.1764C7.0799 18.1131 8.56179 19.3592 9.4593 19.7233C9.31303 21.699 9.6851 23.2584 10.2326 24.8935C10.66 26.1685 10.8531 25.7498 10.3795 26.9248C10.1197 27.5685 9.91019 28.3794 9.82356 29.1599C9.38972 33.0606 11.2827 35.3637 14.5142 35.6746L14.5447 36.7965C11.9907 36.4567 10.2198 39.7637 13.104 40.4683C14.1989 43.3042 15.5388 42.0324 16.2403 42.3519C16.8055 42.6097 17.4212 42.9347 18.041 42.1261C19.584 40.4301 17.8401 38.5301 17.441 38.0574C20.4758 38.127 19.2595 38.0402 21.695 37.5863L21.6474 37.7645C21.5224 38.0004 21.4514 38.2746 21.4514 38.5668C21.4514 39.4496 22.1019 40.1644 22.9042 40.1644C23.7066 40.1644 24.3563 39.4488 24.3563 38.5668C24.3563 37.7629 23.8173 37.0981 23.1151 36.9856L23.1158 36.9848ZM36.969 21.0865L37.5818 21.0795C37.6265 23.6623 38.4772 21.1686 39.2362 21.1858C39.3896 21.5373 39.2717 21.7334 39.2064 22.2209C39.0275 23.5521 39.4563 23.6498 40.0499 22.4928C41.0291 20.5834 40.9148 22.3131 40.9666 23.2576C41.6646 23.2092 41.4999 22.8818 41.9557 22.4451C43.2637 23.4061 42.7702 23.085 44.556 22.9686C45.0523 22.9357 45.5877 22.9029 46.0975 22.9373C47.3564 23.0217 47.8421 23.2076 47.3159 24.6459C46.8729 25.8568 45.8227 27.0935 45.4102 27.5622L44.916 26.0263H44.7534C44.8116 26.9857 45.1332 27.8224 45.0629 28.8513C44.044 28.149 43.0542 28.1404 42.0693 28.2693C42.7815 28.2443 45.2291 28.3833 45.0445 29.8161C44 29.413 43.4192 28.8505 42.0736 28.6411C40.7664 30.4325 38.8144 30.4083 37.9382 29.9302C38.4502 28.1513 38.2322 28.3357 38.9543 28.181C41.5652 27.6224 38.9032 25.8857 37.1799 26.2537C36.8298 27.1482 37.5101 27.7341 38.0646 28.088L37.6201 29.7958C37.2331 30.4091 33.1311 26.4779 35.0668 26.2802C33.4464 25.9724 32.8045 25.9732 31.1409 26.2779L31.3972 25.456C32.938 25.2638 34.3461 25.799 35.2166 25.8693C33.8554 25.1584 32.5326 25.1224 31.5676 25.0771C31.7387 24.2764 32.9551 23.0146 33.3349 22.2576C32.7115 22.5154 32.4168 22.9498 32.0114 23.3045C31.8381 22.0154 31.5761 20.1936 32.0256 18.9959C32.3359 18.1671 32.6291 18.285 33.3399 18.6366C33.9001 18.9139 34.4504 19.3444 34.7778 19.6131C36.0303 20.6428 36.0722 21.0553 36.969 21.0842V21.0865ZM40.7962 25.5888C41.2137 24.6232 42.734 24.8678 42.9413 26.2123L42.4947 25.8201C41.9792 25.3443 41.4076 25.3795 40.7955 25.5888H40.7962ZM35.2514 23.7537C35.5965 22.8006 37.182 22.9686 37.3666 24.3943C37.0102 24.0615 36.9236 23.8615 36.3953 23.7037C36.0566 23.6029 35.6256 23.6014 35.2514 23.7537ZM38.5922 31.3067C37.8814 31.8802 36.4713 31.2794 36.1517 30.4224C37.0443 30.7106 37.5456 31.0911 38.5922 31.3067ZM43.6542 24.1349C43.9268 23.817 43.9922 23.7881 44.4246 23.6717C47.2449 22.9061 47.0795 24.9771 45.7204 25.6084C45.9505 25.1748 46.231 24.8849 46.1635 24.2592C45.413 23.9365 44.4778 24.0912 43.6542 24.1349ZM13.3568 24.2381C13.283 22.4381 14.2515 21.6053 15.8491 21.9881C14.8117 22.3998 14.3608 22.0553 13.3568 24.2381ZM32.3714 21.0365C31.9446 17.528 34.6798 19.8952 35.071 21.4928C34.099 20.7967 33.6793 19.9569 32.8556 19.8202C32.5652 20.2834 32.6625 20.4092 32.5439 20.7381C32.4459 21.0115 32.4928 20.8717 32.3707 21.0373L32.3714 21.0365ZM19.6124 21.3287C19.8112 20.7061 20.3111 20.2108 21.1482 20.1998C21.9037 20.1905 22.53 20.6897 22.7395 21.3311C21.6325 20.7811 20.9239 20.6006 19.6124 21.3287ZM16.06 41.63C14.7627 42.3121 13.6572 41.6175 13.5656 39.9715C10.535 39.9605 12.4252 35.9161 15.9648 37.7113C19.2361 39.3715 18.0907 43.6191 16.0607 41.63H16.06ZM16.1573 35.6223C16.868 35.2528 17.2344 35.3551 18.5778 34.5129L19.2645 35.6129C18.1262 35.7536 17.2948 35.7426 16.1573 35.6215V35.6223ZM42.609 34.9434C43.3126 34.9114 43.2026 35.9184 43.0726 36.4215C42.7439 36.1606 42.4684 35.6075 42.609 34.9434ZM42.8078 34.3528C43.0222 33.738 44.0497 33.627 44.2315 34.6481C43.4426 34.7083 43.3986 34.7387 42.8078 34.3528ZM24.7425 32.9161C24.4656 33.3489 23.6796 33.8356 23.2905 34.0692L23.3274 33.2223L24.7425 32.9161ZM21.1411 33.9575L21.0261 32.77C21.3705 32.8497 21.6623 32.9637 21.9946 33.038L22.7551 33.263C22.7707 33.2333 22.8162 33.2926 22.8439 33.3122C22.8155 36.627 19.7097 36.3559 19.0479 34.2223C19.2574 33.9294 20.1946 33.12 20.4737 32.9075L21.1404 33.9575H21.1411ZM42.4052 29.213C42.9555 29.2654 44.5496 29.8122 44.9131 30.1896C43.9758 36.1309 35.8514 35.5778 32.5986 31.7661C31.4852 30.4607 30.6594 28.5271 31.0762 26.7076C31.8211 26.3115 33.1581 26.2818 34.0322 26.4076C34.7714 30.3974 40.1316 32.613 42.4052 29.2138V29.213ZM19.1544 25.2076C21.2867 24.6857 21.0765 27.0419 19.0877 27.5404C17.0463 28.0513 16.7345 25.8006 19.1544 25.2076ZM9.30309 16.8093C10.212 16.3319 10.3192 16.5382 11.2423 16.8889C12.4018 17.3303 12.1781 17.1811 12.9748 16.6233C15.0787 15.2507 17.3786 13.6101 20.4836 14.0859C20.0114 13.1679 20.0477 13.1999 20.5028 12.3054C20.9608 11.4062 21.8263 9.86637 22.4356 9.23201C24.4308 7.15781 29.228 10.8914 30.1894 12.1749C32.1555 14.7999 29.2337 18.1874 27.1951 17.1632C25.6713 16.3968 23.9132 13.3773 22.9532 11.7335L23.1534 13.146C21.1241 14.8687 23.0398 15.4163 24.2391 18.9788C24.5295 19.842 24.5707 20.4451 24.7923 21.2209C24.9414 21.7412 25.1288 21.6865 25.5243 21.9865C26.2109 22.5068 26.9473 23.3873 27.3556 24.2662C27.8249 25.274 28.1863 27.9654 27.538 28.8888C26.659 32.6848 22.2708 33.3458 20.7563 31.8809C21.9463 31.0817 22.4349 31.0724 23.1215 29.7646C24.1752 27.756 23.6824 24.9623 21.6389 24.049C20.3267 23.4631 18.482 23.806 17.3189 24.6779C13.6841 27.4052 16.0003 32.6942 20.4261 31.9208C19.9475 32.8005 18.4756 33.9965 17.3139 34.5614C14.6725 35.8457 10.8574 34.9786 10.3305 31.1716C10.0827 29.3841 10.562 27.488 11.2976 26.2677C10.9341 25.0068 10.3895 23.9498 10.0976 22.4412C9.95634 21.71 9.84131 20.8194 9.95847 20.0686C10.0501 19.4811 10.4697 18.8741 10.6983 18.3928C10.3696 18.6108 10.0139 18.771 9.73693 19.1506C8.51635 18.8436 6.77813 17.1194 6.57718 15.6499C6.25979 13.3327 7.19422 9.20623 8.62854 7.83359C11.8351 4.76566 16.2197 7.74453 12.5097 12.2265C11.3914 13.6015 10.0302 15.1288 9.30238 16.8093H9.30309Z" fill="#1A365E" stroke="#1A365E" stroke-width="0.6" mask="url(#path-2-inside-1_2_1304)"/>
</svg>
