<svg width="164" height="165" viewBox="0 0 164 165" fill="none" xmlns="http://www.w3.org/2000/svg">
<circle cx="82.1194" cy="83" r="64" fill="#1A365E"/>
<circle cx="82.1194" cy="83" r="30" fill="#AFDFF9"/>
<path d="M34.2861 95.3606C33.9199 95.7501 33.69 96.1959 33.5965 96.6981C33.503 97.2002 33.5493 97.7351 33.7354 98.3027C33.9414 98.9311 34.2661 99.442 34.7094 99.8355C35.1527 100.229 35.6828 100.476 36.2996 100.577C36.9164 100.678 37.5694 100.615 38.2586 100.389C38.9681 100.157 39.5415 99.8171 39.9789 99.3706C40.4129 98.914 40.6903 98.3908 40.8113 97.8011C40.9322 97.2114 40.8847 96.5871 40.6687 95.9283C40.4028 95.1174 39.9723 94.5233 39.3771 94.146C38.7718 93.772 38.0574 93.6302 37.2339 93.7206L38.4303 97.3694L36.8035 97.9029L34.9192 92.1559L36.774 91.5477C37.5604 91.447 38.3443 91.5268 39.1256 91.7869C39.9069 92.0471 40.6114 92.484 41.2392 93.0977C41.8535 93.7045 42.3102 94.464 42.6093 95.3762C42.9449 96.3999 43.021 97.4021 42.8374 98.3828C42.6403 99.3567 42.2094 100.216 41.5446 100.962C40.8765 101.697 40.0204 102.236 38.9765 102.579C37.9325 102.921 36.9236 102.994 35.9497 102.796C34.9624 102.593 34.106 102.155 33.3807 101.483C32.642 100.805 32.1064 99.9593 31.7741 98.9458C31.3819 97.7497 31.3352 96.6145 31.634 95.5399C31.9226 94.4686 32.5391 93.593 33.4835 92.9129L34.2861 95.3606Z" fill="white"/>
<path d="M29.416 83.0875L40.5815 82.8498L40.6292 85.0893L29.4637 85.327L29.416 83.0875Z" fill="white"/>
<path d="M32.692 64.0714L42.4062 70.9369L41.6972 73.5629L29.8476 74.6061L30.4732 72.2891L39.8469 71.638L32.0705 66.373L32.692 64.0714Z" fill="white"/>
<path d="M39.2918 55.7999L41.617 57.3599L43.7118 54.2376L45.1866 55.227L43.0918 58.3494L45.5498 59.9985L47.9121 56.4776L49.4268 57.4938L45.8165 62.8749L36.5291 56.6439L40.1394 51.2627L41.6541 52.279L39.2918 55.7999Z" fill="white"/>
<path d="M57.2385 47.53L53.7047 50.2312L54.4122 52.3688L52.5436 53.7971L48.9424 42.4727L51.0144 40.8889L60.9969 47.3356L59.1156 48.7737L57.2385 47.53ZM55.6672 46.4755L51.5461 43.745L53.0995 48.4382L55.6672 46.4755Z" fill="white"/>
<path d="M76.9253 30.7154L76.5606 42.3053L73.9969 42.9353L70.0638 35.7132L69.8328 43.9586L67.2884 44.6003L61.6983 34.4573L64.029 33.8846L68.0097 41.8364L68.1465 32.8727L70.5704 32.2771L74.7105 40.1402L74.5791 31.2919L76.9253 30.7154Z" fill="white"/>
<path d="M90.9814 41.269L86.598 40.5134L85.5112 42.4855L83.1934 42.0859L89.0508 31.7467L91.6209 32.1897L93.6788 43.8933L91.3452 43.4911L90.9814 41.269ZM90.6866 39.3997L89.8877 34.5211L87.5016 38.8507L90.6866 39.3997Z" fill="white"/>
<path d="M111.303 40.4745L104.413 44.9227L102.484 48.2987L100.539 47.1875L102.468 43.8116L102.786 35.6094L104.981 36.8634L104.534 42.4857L109.135 39.2364L111.303 40.4745Z" fill="white"/>
<path d="M128.322 70.9082C128.69 70.5202 128.922 70.0753 129.017 69.5735C129.113 69.0718 129.069 68.5367 128.885 67.9684C128.681 67.3392 128.359 66.827 127.917 66.4317C127.475 66.0365 126.946 65.7873 126.33 65.684C125.713 65.5807 125.06 65.6407 124.37 65.8639C123.659 66.0937 123.085 66.431 122.646 66.8758C122.21 67.3307 121.93 67.8527 121.807 68.4419C121.684 69.0312 121.729 69.6556 121.942 70.3153C122.205 71.1272 122.633 71.723 123.227 72.1027C123.831 72.4791 124.544 72.6237 125.368 72.5366L124.186 68.883L125.815 68.3561L127.677 74.1105L125.819 74.7113C125.033 74.8089 124.249 74.726 123.469 74.4627C122.689 74.1994 121.986 73.7597 121.36 73.1436C120.749 72.5344 120.295 71.7731 119.999 70.8597C119.668 69.8347 119.596 68.8322 119.783 67.8522C119.984 66.8791 120.418 66.0211 121.086 65.2782C121.757 64.5454 122.615 64.01 123.661 63.6718C124.706 63.3336 125.715 63.265 126.688 63.4659C127.675 63.6737 128.529 64.1147 129.252 64.789C129.988 65.4702 130.52 66.3182 130.849 67.3331C131.236 68.5307 131.278 69.6661 130.975 70.7395C130.682 71.8096 130.062 72.6828 129.115 73.3592L128.322 70.9082Z" fill="white"/>
<path d="M133.144 83.2006L121.977 83.3941L121.939 81.1544L133.105 80.9609L133.144 83.2006Z" fill="white"/>
<path d="M129.793 102.203L120.106 95.2994L120.825 92.6763L132.679 91.68L132.044 93.9945L122.668 94.6085L130.423 99.9043L129.793 102.203Z" fill="white"/>
<path d="M123.16 110.449L120.841 108.88L118.734 111.994L117.263 110.998L119.37 107.884L116.919 106.226L114.542 109.737L113.032 108.715L116.663 103.348L125.926 109.616L122.294 114.983L120.784 113.961L123.16 110.449Z" fill="white"/>
<path d="M105.181 118.647L108.725 115.96L108.026 113.82L109.901 112.399L113.457 123.737L111.379 125.313L101.422 118.827L103.309 117.396L105.181 118.647ZM106.748 119.708L110.858 122.455L109.323 117.755L106.748 119.708Z" fill="white"/>
<path d="M85.4275 135.383L85.8381 123.795L88.4043 123.175L92.3088 130.413L92.5724 122.168L95.1193 121.537L100.669 131.702L98.3363 132.265L94.3872 124.298L94.2148 133.261L91.7886 133.847L87.6797 125.967L87.776 134.816L85.4275 135.383Z" fill="white"/>
<path d="M71.4132 124.775L75.7935 125.548L76.8881 123.58L79.2043 123.989L73.3059 134.305L70.7376 133.851L68.7262 122.14L71.0582 122.551L71.4132 124.775ZM71.7005 126.645L72.4801 131.527L74.8834 127.207L71.7005 126.645Z" fill="white"/>
<path d="M51.0887 125.489L57.9961 121.068L59.9381 117.7L61.8786 118.819L59.9367 122.187L59.5856 130.388L57.3955 129.125L57.8657 123.505L53.251 126.736L51.0887 125.489Z" fill="white"/>
<g clip-path="url(#clip0_2_1305)">
<path d="M75.0802 66.4855C76.6021 65.1892 79.7964 66.4404 81.4574 68.3905C83.1183 70.3406 83.2316 72.9726 81.7097 74.2689C80.1878 75.5651 77.6075 75.0349 75.9463 73.0845C74.2851 71.1341 73.5583 67.7818 75.0802 66.4855Z" fill="#1A365E"/>
<path d="M67.2506 73.1545C68.7725 71.8582 71.9668 73.1093 73.6278 75.0594C75.2887 77.0095 75.402 79.6415 73.8801 80.9378C72.3582 82.2341 69.7779 81.7038 68.1167 79.7534C66.4555 77.8031 65.7288 74.4507 67.2506 73.1545Z" fill="#1A365E"/>
<path d="M67.7587 90.4688C65.7422 89.4105 64.0541 86.8553 64.9078 85.2441C65.7615 83.6328 68.8336 83.5756 70.8501 84.634C72.8666 85.6923 73.8095 87.8564 72.9558 89.4676C72.1021 91.0789 69.7752 91.5272 67.7587 90.4688Z" fill="#1A365E"/>
<path d="M92.0934 69.7423C92.8174 71.9015 92.0046 74.1274 90.2781 74.7138C88.5515 75.3003 86.5647 74.0254 85.841 71.8659C85.117 69.7067 85.6622 66.6828 87.3888 66.0964C89.1153 65.5099 91.3693 67.5831 92.0934 69.7423Z" fill="#1A365E"/>
<path d="M97.3537 80.5951C95.9359 79.5294 94.2193 78.9411 92.502 78.5034C88.4788 77.4785 83.3355 77.3641 80.0064 80.1997C76.6911 83.0234 75.9719 88.1301 76.3436 92.2663C76.5022 94.0316 76.8096 95.8196 77.6367 97.3889C78.4635 98.9585 79.8802 100.294 81.6128 100.665C83.3455 101.036 85.3557 100.246 86.0782 98.631C86.5078 97.6707 86.5013 96.4778 87.2419 95.7314C87.9218 95.0464 88.9866 94.9857 89.9468 94.8753C90.6406 94.7955 91.4024 94.6119 91.9151 94.1813C92.4219 93.7436 92.7243 93.0207 92.9135 92.3484C93.1749 91.4183 93.4045 90.377 94.189 89.8143C95.0435 89.2015 96.2204 89.398 97.2369 89.1267C98.9463 88.6704 100.046 86.8115 99.9556 85.0419C99.8649 83.2723 98.7717 81.6611 97.3537 80.5951ZM89.0433 84.9348C89.2488 85.937 89.1682 87.0432 89.0659 87.9372C89.011 88.418 88.9286 88.8938 88.8195 89.3622C88.8192 89.363 88.8191 89.3641 88.8187 89.3649C88.6885 89.9128 88.2144 90.3166 87.6527 90.358C87.6517 90.3579 87.6508 90.3581 87.65 90.3583C87.1705 90.3918 86.6873 90.3972 86.2039 90.3749C85.305 90.3337 84.2001 90.2372 83.2434 89.8749C82.453 89.5756 81.7636 89.0945 81.3747 88.3126C81.002 87.5633 81.0303 86.6021 81.5674 86.0135C82.1886 85.333 83.4134 85.1299 84.3488 85.298C84.3314 84.348 84.7271 83.1708 85.4977 82.6658C86.1641 82.229 87.1178 82.3542 87.7982 82.8414C88.5083 83.3498 88.8736 84.1069 89.0433 84.9348Z" fill="#1A365E"/>
</g>
<defs>
<clipPath id="clip0_2_1305">
<rect width="32.8421" height="32" fill="white" transform="translate(58.6643 80.4678) rotate(-40.4225)"/>
</clipPath>
</defs>
</svg>
