<svg width="130" height="25" viewBox="0 0 130 25" fill="none" xmlns="http://www.w3.org/2000/svg">
<path d="M6.192 16.096C6.192 15.888 6.224 15.752 6.288 15.688C6.352 15.624 6.488 15.592 6.696 15.592H7.488V11.848L2.448 3.832H0.816C0.608 3.832 0.472 3.8 0.408 3.736C0.344 3.672 0.312 3.536 0.312 3.328V0.927999C0.312 0.719999 0.344 0.583999 0.408 0.519999C0.472 0.455999 0.608 0.423999 0.816 0.423999H8.376C8.584 0.423999 8.72 0.455999 8.784 0.519999C8.848 0.583999 8.88 0.719999 8.88 0.927999V3.328C8.88 3.536 8.848 3.672 8.784 3.736C8.72 3.8 8.584 3.832 8.376 3.832H7.992L9.888 7.336L10.176 8.752L10.464 7.336L12.432 3.832H12.024C11.816 3.832 11.68 3.8 11.616 3.736C11.552 3.672 11.52 3.536 11.52 3.328V0.927999C11.52 0.719999 11.552 0.583999 11.616 0.519999C11.68 0.455999 11.816 0.423999 12.024 0.423999H19.656C19.864 0.423999 20 0.455999 20.064 0.519999C20.128 0.583999 20.16 0.719999 20.16 0.927999V3.328C20.16 3.536 20.128 3.672 20.064 3.736C20 3.8 19.864 3.832 19.656 3.832H17.928L12.768 11.8V15.592H13.56C13.768 15.592 13.904 15.624 13.968 15.688C14.032 15.752 14.064 15.888 14.064 16.096V18.496C14.064 18.704 14.032 18.84 13.968 18.904C13.904 18.968 13.768 19 13.56 19H6.696C6.488 19 6.352 18.968 6.288 18.904C6.224 18.84 6.192 18.704 6.192 18.496V16.096ZM28.1831 6.568C28.1831 6.36 28.2871 6.256 28.4951 6.256H32.5991C32.8071 6.256 32.9111 6.36 32.9111 6.568V15.592H33.5591C33.7671 15.592 33.8711 15.696 33.8711 15.904V18.688C33.8711 18.896 33.7671 19 33.5591 19H28.6391C28.4311 19 28.3191 18.896 28.3031 18.688L28.1831 17.464C28.0391 17.64 27.8471 17.84 27.6071 18.064C27.3671 18.272 27.0791 18.472 26.7431 18.664C26.4071 18.856 26.0151 19.016 25.5671 19.144C25.1351 19.288 24.6391 19.36 24.0791 19.36C22.8151 19.36 21.8871 19 21.2951 18.28C20.7031 17.56 20.4071 16.616 20.4071 15.448V9.664H19.7591C19.5511 9.664 19.4471 9.56 19.4471 9.352V6.568C19.4471 6.36 19.5511 6.256 19.7591 6.256H24.9911C25.1991 6.256 25.3031 6.36 25.3031 6.568V13.384C25.3031 14.04 25.3831 14.568 25.5431 14.968C25.7031 15.368 26.0391 15.568 26.5511 15.568C26.8551 15.568 27.1111 15.504 27.3191 15.376C27.5271 15.232 27.6951 15.056 27.8231 14.848C27.9511 14.624 28.0391 14.384 28.0871 14.128C28.1511 13.872 28.1831 13.624 28.1831 13.384V6.568ZM35.109 6.568C35.109 6.36 35.213 6.256 35.421 6.256H40.197C40.325 6.256 40.405 6.28 40.437 6.328C40.485 6.36 40.525 6.44 40.557 6.568L40.677 7.408C40.821 7.264 41.013 7.112 41.253 6.952C41.493 6.776 41.765 6.616 42.069 6.472C42.389 6.328 42.741 6.208 43.125 6.112C43.525 6.016 43.957 5.968 44.421 5.968C45.253 5.968 46.029 6.136 46.749 6.472C47.469 6.792 48.093 7.248 48.621 7.84C49.149 8.432 49.565 9.128 49.869 9.928C50.173 10.728 50.325 11.608 50.325 12.568C50.325 13.528 50.173 14.424 49.869 15.256C49.581 16.072 49.173 16.784 48.645 17.392C48.117 18 47.493 18.48 46.773 18.832C46.053 19.184 45.277 19.36 44.445 19.36C44.013 19.36 43.605 19.312 43.221 19.216C42.837 19.136 42.493 19.032 42.189 18.904C41.885 18.76 41.621 18.616 41.397 18.472C41.173 18.328 40.989 18.2 40.845 18.088V20.728H41.637C41.845 20.728 41.949 20.832 41.949 21.04V23.824C41.949 24.032 41.845 24.136 41.637 24.136H35.421C35.213 24.136 35.109 24.032 35.109 23.824V21.04C35.109 20.832 35.213 20.728 35.421 20.728H36.069V9.664H35.421C35.213 9.664 35.109 9.56 35.109 9.352V6.568ZM40.749 12.664C40.749 13.048 40.805 13.416 40.917 13.768C41.045 14.12 41.213 14.424 41.421 14.68C41.645 14.936 41.901 15.144 42.189 15.304C42.493 15.448 42.813 15.52 43.149 15.52C43.485 15.52 43.797 15.448 44.085 15.304C44.389 15.144 44.645 14.936 44.853 14.68C45.077 14.424 45.245 14.12 45.357 13.768C45.485 13.416 45.549 13.048 45.549 12.664C45.549 12.28 45.485 11.912 45.357 11.56C45.245 11.208 45.077 10.904 44.853 10.648C44.645 10.392 44.389 10.192 44.085 10.048C43.797 9.888 43.485 9.808 43.149 9.808C42.813 9.808 42.493 9.888 42.189 10.048C41.901 10.192 41.645 10.392 41.421 10.648C41.213 10.904 41.045 11.208 40.917 11.56C40.805 11.912 40.749 12.28 40.749 12.664ZM51.4506 6.568C51.4506 6.36 51.5546 6.256 51.7626 6.256H56.5386C56.6666 6.256 56.7466 6.28 56.7786 6.328C56.8266 6.36 56.8666 6.44 56.8986 6.568L57.0186 7.408C57.1626 7.264 57.3546 7.112 57.5946 6.952C57.8346 6.776 58.1066 6.616 58.4106 6.472C58.7306 6.328 59.0826 6.208 59.4666 6.112C59.8666 6.016 60.2986 5.968 60.7626 5.968C61.5946 5.968 62.3706 6.136 63.0906 6.472C63.8106 6.792 64.4346 7.248 64.9626 7.84C65.4906 8.432 65.9066 9.128 66.2106 9.928C66.5146 10.728 66.6666 11.608 66.6666 12.568C66.6666 13.528 66.5146 14.424 66.2106 15.256C65.9226 16.072 65.5146 16.784 64.9866 17.392C64.4586 18 63.8346 18.48 63.1146 18.832C62.3946 19.184 61.6186 19.36 60.7866 19.36C60.3546 19.36 59.9466 19.312 59.5626 19.216C59.1786 19.136 58.8346 19.032 58.5306 18.904C58.2266 18.76 57.9626 18.616 57.7386 18.472C57.5146 18.328 57.3306 18.2 57.1866 18.088V20.728H57.9786C58.1866 20.728 58.2906 20.832 58.2906 21.04V23.824C58.2906 24.032 58.1866 24.136 57.9786 24.136H51.7626C51.5546 24.136 51.4506 24.032 51.4506 23.824V21.04C51.4506 20.832 51.5546 20.728 51.7626 20.728H52.4106V9.664H51.7626C51.5546 9.664 51.4506 9.56 51.4506 9.352V6.568ZM57.0906 12.664C57.0906 13.048 57.1466 13.416 57.2586 13.768C57.3866 14.12 57.5546 14.424 57.7626 14.68C57.9866 14.936 58.2426 15.144 58.5306 15.304C58.8346 15.448 59.1546 15.52 59.4906 15.52C59.8266 15.52 60.1386 15.448 60.4266 15.304C60.7306 15.144 60.9866 14.936 61.1946 14.68C61.4186 14.424 61.5866 14.12 61.6986 13.768C61.8266 13.416 61.8906 13.048 61.8906 12.664C61.8906 12.28 61.8266 11.912 61.6986 11.56C61.5866 11.208 61.4186 10.904 61.1946 10.648C60.9866 10.392 60.7306 10.192 60.4266 10.048C60.1386 9.888 59.8266 9.808 59.4906 9.808C59.1546 9.808 58.8346 9.888 58.5306 10.048C58.2426 10.192 57.9866 10.392 57.7626 10.648C57.5546 10.904 57.3866 11.208 57.2586 11.56C57.1466 11.912 57.0906 12.28 57.0906 12.664ZM68.2213 15.904C68.2213 15.696 68.3253 15.592 68.5333 15.592H69.1813V9.664H68.5333C68.3253 9.664 68.2213 9.56 68.2213 9.352V6.568C68.2213 6.36 68.3253 6.256 68.5333 6.256H73.6453C73.8533 6.256 73.9573 6.36 73.9573 6.568V15.592H74.6053C74.8133 15.592 74.9173 15.696 74.9173 15.904V18.688C74.9173 18.896 74.8133 19 74.6053 19H68.5333C68.3253 19 68.2213 18.896 68.2213 18.688V15.904ZM69.4933 4.384C69.2853 4.384 69.1813 4.28 69.1813 4.072V0.735999C69.1813 0.527999 69.2853 0.423999 69.4933 0.423999H73.6453C73.8533 0.423999 73.9573 0.527999 73.9573 0.735999V4.072C73.9573 4.28 73.8533 4.384 73.6453 4.384H69.4933ZM77.0049 16.096C77.0049 15.888 77.0369 15.752 77.1009 15.688C77.1649 15.624 77.3009 15.592 77.5089 15.592H77.9409V3.832H77.4849C77.2769 3.832 77.1409 3.8 77.0769 3.736C77.0129 3.672 76.9809 3.536 76.9809 3.328V0.927999C76.9809 0.719999 77.0129 0.583999 77.0769 0.519999C77.1409 0.455999 77.2769 0.423999 77.4849 0.423999H84.9009C85.8129 0.423999 86.7409 0.495999 87.6849 0.639999C88.6289 0.783999 89.4849 1.072 90.2529 1.504C91.0209 1.936 91.6449 2.544 92.1249 3.328C92.6209 4.112 92.8689 5.144 92.8689 6.424C92.8689 7.544 92.6769 8.488 92.2929 9.256C91.9089 10.024 91.3969 10.648 90.7569 11.128C90.1169 11.608 89.3889 11.952 88.5729 12.16C87.7729 12.368 86.9409 12.472 86.0769 12.472H83.1729V15.592H83.7489C83.9569 15.592 84.0929 15.624 84.1569 15.688C84.2209 15.752 84.2529 15.888 84.2529 16.096V18.496C84.2529 18.704 84.2209 18.84 84.1569 18.904C84.0929 18.968 83.9569 19 83.7489 19H77.5089C77.3009 19 77.1649 18.968 77.1009 18.904C77.0369 18.84 77.0049 18.704 77.0049 18.496V16.096ZM87.5889 6.544C87.5889 6.112 87.5089 5.76 87.3489 5.488C87.1889 5.216 86.9729 5 86.7009 4.84C86.4449 4.664 86.1329 4.544 85.7649 4.48C85.4129 4.416 85.0369 4.384 84.6369 4.384H83.1729V8.584H84.6609C85.0449 8.584 85.4129 8.56 85.7649 8.512C86.1169 8.464 86.4289 8.368 86.7009 8.224C86.9729 8.08 87.1889 7.872 87.3489 7.6C87.5089 7.328 87.5889 6.976 87.5889 6.544ZM105.807 16.048C105.919 16.144 105.975 16.224 105.975 16.288C105.975 16.304 105.959 16.36 105.927 16.456C105.879 16.568 105.751 16.784 105.543 17.104C105.351 17.424 105.031 17.752 104.583 18.088C104.151 18.424 103.567 18.72 102.831 18.976C102.111 19.232 101.199 19.36 100.095 19.36C99.0234 19.36 98.0634 19.192 97.2154 18.856C96.3834 18.52 95.6714 18.056 95.0794 17.464C94.5034 16.856 94.0634 16.144 93.7594 15.328C93.4554 14.496 93.3034 13.6 93.3034 12.64C93.3034 11.68 93.4634 10.792 93.7834 9.976C94.1034 9.16 94.5594 8.456 95.1514 7.864C95.7434 7.272 96.4554 6.808 97.2874 6.472C98.1194 6.136 99.0474 5.968 100.071 5.968C101.079 5.968 101.983 6.144 102.783 6.496C103.599 6.848 104.295 7.336 104.871 7.96C105.447 8.584 105.887 9.336 106.191 10.216C106.511 11.08 106.671 12.04 106.671 13.096C106.671 13.368 106.631 13.536 106.551 13.6C106.471 13.664 106.303 13.696 106.047 13.696H98.1514C98.1514 14.016 98.2154 14.304 98.3434 14.56C98.4714 14.8 98.6394 15.008 98.8474 15.184C99.0714 15.344 99.3274 15.472 99.6154 15.568C99.9034 15.648 100.199 15.688 100.503 15.688C100.983 15.688 101.375 15.632 101.679 15.52C101.983 15.408 102.231 15.288 102.423 15.16C102.615 15.016 102.767 14.888 102.879 14.776C102.991 14.664 103.095 14.608 103.191 14.608C103.255 14.608 103.327 14.632 103.407 14.68C103.487 14.728 103.567 14.776 103.647 14.824L105.807 16.048ZM101.799 11.752C101.799 11.112 101.607 10.64 101.223 10.336C100.855 10.016 100.439 9.856 99.9754 9.856C99.5114 9.856 99.0874 10.016 98.7034 10.336C98.3354 10.64 98.1514 11.112 98.1514 11.752H101.799ZM117.055 18.328C117.055 18.456 117.015 18.544 116.935 18.592C116.871 18.624 116.815 18.648 116.767 18.664C115.983 18.904 115.279 19.08 114.655 19.192C114.047 19.304 113.495 19.36 112.999 19.36C112.007 19.36 111.239 19.2 110.695 18.88C110.167 18.544 109.775 18.176 109.519 17.776C109.279 17.36 109.135 16.976 109.087 16.624C109.055 16.256 109.039 16.04 109.039 15.976V9.664H108.223C108.015 9.664 107.911 9.56 107.911 9.352V6.568C107.911 6.36 108.015 6.256 108.223 6.256H109.039V3.736C109.039 3.528 109.143 3.4 109.351 3.352L113.527 2.344C113.559 2.344 113.583 2.344 113.599 2.344C113.615 2.328 113.639 2.32 113.671 2.32C113.783 2.32 113.839 2.408 113.839 2.584V6.256H116.479C116.655 6.256 116.743 6.312 116.743 6.424L115.999 9.352C115.951 9.56 115.823 9.664 115.615 9.664H113.839V14.536C113.839 14.776 113.911 15.024 114.055 15.28C114.215 15.52 114.551 15.64 115.063 15.64C115.223 15.64 115.399 15.632 115.591 15.616C115.799 15.584 116.023 15.528 116.263 15.448L116.383 15.424C116.431 15.424 116.479 15.44 116.527 15.472C116.575 15.504 116.615 15.576 116.647 15.688L117.055 18.328ZM126.47 9.568C126.118 9.456 125.742 9.376 125.342 9.328C124.958 9.264 124.606 9.232 124.286 9.232C123.918 9.232 123.606 9.28 123.35 9.376C123.094 9.456 122.966 9.584 122.966 9.76C122.966 10.032 123.134 10.264 123.47 10.456C123.806 10.632 124.222 10.808 124.718 10.984C125.214 11.144 125.758 11.32 126.35 11.512C126.942 11.704 127.486 11.952 127.982 12.256C128.478 12.544 128.894 12.912 129.23 13.36C129.566 13.792 129.734 14.336 129.734 14.992C129.734 15.648 129.598 16.248 129.326 16.792C129.07 17.32 128.694 17.776 128.198 18.16C127.718 18.544 127.126 18.84 126.422 19.048C125.734 19.256 124.958 19.36 124.094 19.36C122.894 19.36 121.83 19.24 120.902 19C119.974 18.744 119.07 18.312 118.19 17.704C118.078 17.624 117.99 17.552 117.926 17.488C117.878 17.424 117.854 17.28 117.854 17.056V14.392C117.854 14.184 117.958 14.08 118.166 14.08H120.374C120.582 14.08 120.686 14.184 120.686 14.392V15.256C121.166 15.48 121.694 15.664 122.27 15.808C122.846 15.936 123.366 16 123.83 16C124.182 16 124.462 15.952 124.67 15.856C124.894 15.744 125.006 15.576 125.006 15.352C125.006 15.144 124.838 14.952 124.502 14.776C124.166 14.584 123.742 14.392 123.23 14.2C122.734 14.008 122.19 13.8 121.598 13.576C121.022 13.336 120.478 13.056 119.966 12.736C119.47 12.416 119.054 12.04 118.718 11.608C118.382 11.176 118.214 10.664 118.214 10.072C118.214 9.4 118.358 8.808 118.646 8.296C118.934 7.784 119.326 7.36 119.822 7.024C120.318 6.672 120.902 6.408 121.574 6.232C122.246 6.056 122.958 5.968 123.71 5.968C124.318 5.968 124.894 6.016 125.438 6.112C125.982 6.192 126.478 6.296 126.926 6.424C127.374 6.552 127.766 6.688 128.102 6.832C128.454 6.976 128.742 7.104 128.966 7.216C129.046 7.248 129.118 7.312 129.182 7.408C129.262 7.488 129.302 7.624 129.302 7.816V10.456C129.302 10.664 129.198 10.768 128.99 10.768H126.782C126.574 10.768 126.47 10.664 126.47 10.456V9.568Z" fill="#1A365E"/>
</svg>
