<svg width="246" height="73" viewBox="0 0 246 73" fill="none" xmlns="http://www.w3.org/2000/svg">
<path d="M121.192 42.0833C121.192 41.8753 121.224 41.7393 121.288 41.6753C121.352 41.6113 121.488 41.5793 121.696 41.5793H122.488V37.8353L117.448 29.8193H115.816C115.608 29.8193 115.472 29.7873 115.408 29.7233C115.344 29.6593 115.312 29.5233 115.312 29.3153V26.9153C115.312 26.7073 115.344 26.5713 115.408 26.5073C115.472 26.4433 115.608 26.4113 115.816 26.4113H123.376C123.584 26.4113 123.72 26.4433 123.784 26.5073C123.848 26.5713 123.88 26.7073 123.88 26.9153V29.3153C123.88 29.5233 123.848 29.6593 123.784 29.7233C123.72 29.7873 123.584 29.8193 123.376 29.8193H122.992L124.888 33.3233L125.176 34.7393L125.464 33.3233L127.432 29.8193H127.024C126.816 29.8193 126.68 29.7873 126.616 29.7233C126.552 29.6593 126.52 29.5233 126.52 29.3153V26.9153C126.52 26.7073 126.552 26.5713 126.616 26.5073C126.68 26.4433 126.816 26.4113 127.024 26.4113H134.656C134.864 26.4113 135 26.4433 135.064 26.5073C135.128 26.5713 135.16 26.7073 135.16 26.9153V29.3153C135.16 29.5233 135.128 29.6593 135.064 29.7233C135 29.7873 134.864 29.8193 134.656 29.8193H132.928L127.768 37.7873V41.5793H128.56C128.768 41.5793 128.904 41.6113 128.968 41.6753C129.032 41.7393 129.064 41.8753 129.064 42.0833V44.4833C129.064 44.6913 129.032 44.8273 128.968 44.8913C128.904 44.9553 128.768 44.9873 128.56 44.9873H121.696C121.488 44.9873 121.352 44.9553 121.288 44.8913C121.224 44.8273 121.192 44.6913 121.192 44.4833V42.0833ZM143.183 32.5553C143.183 32.3473 143.287 32.2433 143.495 32.2433H147.599C147.807 32.2433 147.911 32.3473 147.911 32.5553V41.5793H148.559C148.767 41.5793 148.871 41.6833 148.871 41.8913V44.6753C148.871 44.8833 148.767 44.9873 148.559 44.9873H143.639C143.431 44.9873 143.319 44.8833 143.303 44.6753L143.183 43.4513C143.039 43.6273 142.847 43.8273 142.607 44.0513C142.367 44.2593 142.079 44.4593 141.743 44.6513C141.407 44.8433 141.015 45.0033 140.567 45.1313C140.135 45.2753 139.639 45.3473 139.079 45.3473C137.815 45.3473 136.887 44.9873 136.295 44.2673C135.703 43.5473 135.407 42.6033 135.407 41.4353V35.6513H134.759C134.551 35.6513 134.447 35.5473 134.447 35.3393V32.5553C134.447 32.3473 134.551 32.2433 134.759 32.2433H139.991C140.199 32.2433 140.303 32.3473 140.303 32.5553V39.3713C140.303 40.0273 140.383 40.5553 140.543 40.9553C140.703 41.3553 141.039 41.5553 141.551 41.5553C141.855 41.5553 142.111 41.4913 142.319 41.3633C142.527 41.2193 142.695 41.0433 142.823 40.8353C142.951 40.6113 143.039 40.3713 143.087 40.1153C143.151 39.8593 143.183 39.6113 143.183 39.3713V32.5553ZM150.109 32.5553C150.109 32.3473 150.213 32.2433 150.421 32.2433H155.197C155.325 32.2433 155.405 32.2673 155.437 32.3153C155.485 32.3473 155.525 32.4273 155.557 32.5553L155.677 33.3953C155.821 33.2513 156.013 33.0993 156.253 32.9393C156.493 32.7633 156.765 32.6033 157.069 32.4593C157.389 32.3153 157.741 32.1953 158.125 32.0993C158.525 32.0033 158.957 31.9553 159.421 31.9553C160.253 31.9553 161.029 32.1233 161.749 32.4593C162.469 32.7793 163.093 33.2353 163.621 33.8273C164.149 34.4193 164.565 35.1153 164.869 35.9153C165.173 36.7153 165.325 37.5953 165.325 38.5553C165.325 39.5153 165.173 40.4113 164.869 41.2433C164.581 42.0593 164.173 42.7713 163.645 43.3793C163.117 43.9873 162.493 44.4673 161.773 44.8193C161.053 45.1713 160.277 45.3473 159.445 45.3473C159.013 45.3473 158.605 45.2993 158.221 45.2033C157.837 45.1233 157.493 45.0193 157.189 44.8913C156.885 44.7473 156.621 44.6033 156.397 44.4593C156.173 44.3153 155.989 44.1873 155.845 44.0753V46.7153H156.637C156.845 46.7153 156.949 46.8193 156.949 47.0273V49.8113C156.949 50.0193 156.845 50.1233 156.637 50.1233H150.421C150.213 50.1233 150.109 50.0193 150.109 49.8113V47.0273C150.109 46.8193 150.213 46.7153 150.421 46.7153H151.069V35.6513H150.421C150.213 35.6513 150.109 35.5473 150.109 35.3393V32.5553ZM155.749 38.6513C155.749 39.0353 155.805 39.4033 155.917 39.7553C156.045 40.1073 156.213 40.4113 156.421 40.6673C156.645 40.9233 156.901 41.1313 157.189 41.2913C157.493 41.4353 157.813 41.5073 158.149 41.5073C158.485 41.5073 158.797 41.4353 159.085 41.2913C159.389 41.1313 159.645 40.9233 159.853 40.6673C160.077 40.4113 160.245 40.1073 160.357 39.7553C160.485 39.4033 160.549 39.0353 160.549 38.6513C160.549 38.2673 160.485 37.8993 160.357 37.5473C160.245 37.1953 160.077 36.8913 159.853 36.6353C159.645 36.3793 159.389 36.1793 159.085 36.0353C158.797 35.8753 158.485 35.7953 158.149 35.7953C157.813 35.7953 157.493 35.8753 157.189 36.0353C156.901 36.1793 156.645 36.3793 156.421 36.6353C156.213 36.8913 156.045 37.1953 155.917 37.5473C155.805 37.8993 155.749 38.2673 155.749 38.6513ZM166.451 32.5553C166.451 32.3473 166.555 32.2433 166.763 32.2433H171.539C171.667 32.2433 171.747 32.2673 171.779 32.3153C171.827 32.3473 171.867 32.4273 171.899 32.5553L172.019 33.3953C172.163 33.2513 172.355 33.0993 172.595 32.9393C172.835 32.7633 173.107 32.6033 173.411 32.4593C173.731 32.3153 174.083 32.1953 174.467 32.0993C174.867 32.0033 175.299 31.9553 175.763 31.9553C176.595 31.9553 177.371 32.1233 178.091 32.4593C178.811 32.7793 179.435 33.2353 179.963 33.8273C180.491 34.4193 180.907 35.1153 181.211 35.9153C181.515 36.7153 181.667 37.5953 181.667 38.5553C181.667 39.5153 181.515 40.4113 181.211 41.2433C180.923 42.0593 180.515 42.7713 179.987 43.3793C179.459 43.9873 178.835 44.4673 178.115 44.8193C177.395 45.1713 176.619 45.3473 175.787 45.3473C175.355 45.3473 174.947 45.2993 174.563 45.2033C174.179 45.1233 173.835 45.0193 173.531 44.8913C173.227 44.7473 172.963 44.6033 172.739 44.4593C172.515 44.3153 172.331 44.1873 172.187 44.0753V46.7153H172.979C173.187 46.7153 173.291 46.8193 173.291 47.0273V49.8113C173.291 50.0193 173.187 50.1233 172.979 50.1233H166.763C166.555 50.1233 166.451 50.0193 166.451 49.8113V47.0273C166.451 46.8193 166.555 46.7153 166.763 46.7153H167.411V35.6513H166.763C166.555 35.6513 166.451 35.5473 166.451 35.3393V32.5553ZM172.091 38.6513C172.091 39.0353 172.147 39.4033 172.259 39.7553C172.387 40.1073 172.555 40.4113 172.763 40.6673C172.987 40.9233 173.243 41.1313 173.531 41.2913C173.835 41.4353 174.155 41.5073 174.491 41.5073C174.827 41.5073 175.139 41.4353 175.427 41.2913C175.731 41.1313 175.987 40.9233 176.195 40.6673C176.419 40.4113 176.587 40.1073 176.699 39.7553C176.827 39.4033 176.891 39.0353 176.891 38.6513C176.891 38.2673 176.827 37.8993 176.699 37.5473C176.587 37.1953 176.419 36.8913 176.195 36.6353C175.987 36.3793 175.731 36.1793 175.427 36.0353C175.139 35.8753 174.827 35.7953 174.491 35.7953C174.155 35.7953 173.835 35.8753 173.531 36.0353C173.243 36.1793 172.987 36.3793 172.763 36.6353C172.555 36.8913 172.387 37.1953 172.259 37.5473C172.147 37.8993 172.091 38.2673 172.091 38.6513ZM183.221 41.8913C183.221 41.6833 183.325 41.5793 183.533 41.5793H184.181V35.6513H183.533C183.325 35.6513 183.221 35.5473 183.221 35.3393V32.5553C183.221 32.3473 183.325 32.2433 183.533 32.2433H188.645C188.853 32.2433 188.957 32.3473 188.957 32.5553V41.5793H189.605C189.813 41.5793 189.917 41.6833 189.917 41.8913V44.6753C189.917 44.8833 189.813 44.9873 189.605 44.9873H183.533C183.325 44.9873 183.221 44.8833 183.221 44.6753V41.8913ZM184.493 30.3713C184.285 30.3713 184.181 30.2673 184.181 30.0593V26.7233C184.181 26.5153 184.285 26.4113 184.493 26.4113H188.645C188.853 26.4113 188.957 26.5153 188.957 26.7233V30.0593C188.957 30.2673 188.853 30.3713 188.645 30.3713H184.493ZM192.005 42.0833C192.005 41.8753 192.037 41.7393 192.101 41.6753C192.165 41.6113 192.301 41.5793 192.509 41.5793H192.941V29.8193H192.485C192.277 29.8193 192.141 29.7873 192.077 29.7233C192.013 29.6593 191.981 29.5233 191.981 29.3153V26.9153C191.981 26.7073 192.013 26.5713 192.077 26.5073C192.141 26.4433 192.277 26.4113 192.485 26.4113H199.901C200.813 26.4113 201.741 26.4833 202.685 26.6273C203.629 26.7713 204.485 27.0593 205.253 27.4913C206.021 27.9233 206.645 28.5313 207.125 29.3153C207.621 30.0993 207.869 31.1313 207.869 32.4113C207.869 33.5313 207.677 34.4753 207.293 35.2433C206.909 36.0113 206.397 36.6353 205.757 37.1153C205.117 37.5953 204.389 37.9393 203.573 38.1473C202.773 38.3553 201.941 38.4593 201.077 38.4593H198.173V41.5793H198.749C198.957 41.5793 199.093 41.6113 199.157 41.6753C199.221 41.7393 199.253 41.8753 199.253 42.0833V44.4833C199.253 44.6913 199.221 44.8273 199.157 44.8913C199.093 44.9553 198.957 44.9873 198.749 44.9873H192.509C192.301 44.9873 192.165 44.9553 192.101 44.8913C192.037 44.8273 192.005 44.6913 192.005 44.4833V42.0833ZM202.589 32.5313C202.589 32.0993 202.509 31.7473 202.349 31.4753C202.189 31.2033 201.973 30.9873 201.701 30.8273C201.445 30.6513 201.133 30.5313 200.765 30.4673C200.413 30.4033 200.037 30.3713 199.637 30.3713H198.173V34.5713H199.661C200.045 34.5713 200.413 34.5473 200.765 34.4993C201.117 34.4513 201.429 34.3553 201.701 34.2113C201.973 34.0673 202.189 33.8593 202.349 33.5873C202.509 33.3153 202.589 32.9633 202.589 32.5313ZM220.807 42.0353C220.919 42.1313 220.975 42.2113 220.975 42.2753C220.975 42.2913 220.959 42.3473 220.927 42.4433C220.879 42.5553 220.751 42.7713 220.543 43.0913C220.351 43.4113 220.031 43.7393 219.583 44.0753C219.151 44.4113 218.567 44.7073 217.831 44.9633C217.111 45.2193 216.199 45.3473 215.095 45.3473C214.023 45.3473 213.063 45.1793 212.215 44.8433C211.383 44.5073 210.671 44.0433 210.079 43.4513C209.503 42.8433 209.063 42.1313 208.759 41.3153C208.455 40.4833 208.303 39.5873 208.303 38.6273C208.303 37.6673 208.463 36.7793 208.783 35.9633C209.103 35.1473 209.559 34.4433 210.151 33.8513C210.743 33.2593 211.455 32.7953 212.287 32.4593C213.119 32.1233 214.047 31.9553 215.071 31.9553C216.079 31.9553 216.983 32.1313 217.783 32.4833C218.599 32.8353 219.295 33.3233 219.871 33.9473C220.447 34.5713 220.887 35.3233 221.191 36.2033C221.511 37.0673 221.671 38.0273 221.671 39.0833C221.671 39.3553 221.631 39.5233 221.551 39.5873C221.471 39.6513 221.303 39.6833 221.047 39.6833H213.151C213.151 40.0033 213.215 40.2913 213.343 40.5473C213.471 40.7873 213.639 40.9953 213.847 41.1713C214.071 41.3313 214.327 41.4593 214.615 41.5553C214.903 41.6353 215.199 41.6753 215.503 41.6753C215.983 41.6753 216.375 41.6193 216.679 41.5073C216.983 41.3953 217.231 41.2753 217.423 41.1473C217.615 41.0033 217.767 40.8753 217.879 40.7633C217.991 40.6513 218.095 40.5953 218.191 40.5953C218.255 40.5953 218.327 40.6193 218.407 40.6673C218.487 40.7153 218.567 40.7633 218.647 40.8113L220.807 42.0353ZM216.799 37.7393C216.799 37.0993 216.607 36.6273 216.223 36.3233C215.855 36.0033 215.439 35.8433 214.975 35.8433C214.511 35.8433 214.087 36.0033 213.703 36.3233C213.335 36.6273 213.151 37.0993 213.151 37.7393H216.799ZM232.055 44.3153C232.055 44.4433 232.015 44.5313 231.935 44.5793C231.871 44.6113 231.815 44.6353 231.767 44.6513C230.983 44.8913 230.279 45.0673 229.655 45.1793C229.047 45.2913 228.495 45.3473 227.999 45.3473C227.007 45.3473 226.239 45.1873 225.695 44.8673C225.167 44.5313 224.775 44.1633 224.519 43.7633C224.279 43.3473 224.135 42.9633 224.087 42.6113C224.055 42.2433 224.039 42.0273 224.039 41.9633V35.6513H223.223C223.015 35.6513 222.911 35.5473 222.911 35.3393V32.5553C222.911 32.3473 223.015 32.2433 223.223 32.2433H224.039V29.7233C224.039 29.5153 224.143 29.3873 224.351 29.3393L228.527 28.3313C228.559 28.3313 228.583 28.3313 228.599 28.3313C228.615 28.3153 228.639 28.3073 228.671 28.3073C228.783 28.3073 228.839 28.3953 228.839 28.5713V32.2433H231.479C231.655 32.2433 231.743 32.2993 231.743 32.4113L230.999 35.3393C230.951 35.5473 230.823 35.6513 230.615 35.6513H228.839V40.5233C228.839 40.7633 228.911 41.0113 229.055 41.2673C229.215 41.5073 229.551 41.6273 230.063 41.6273C230.223 41.6273 230.399 41.6193 230.591 41.6033C230.799 41.5713 231.023 41.5153 231.263 41.4353L231.383 41.4113C231.431 41.4113 231.479 41.4273 231.527 41.4593C231.575 41.4913 231.615 41.5633 231.647 41.6753L232.055 44.3153ZM241.47 35.5553C241.118 35.4433 240.742 35.3633 240.342 35.3153C239.958 35.2513 239.606 35.2193 239.286 35.2193C238.918 35.2193 238.606 35.2673 238.35 35.3633C238.094 35.4433 237.966 35.5713 237.966 35.7473C237.966 36.0193 238.134 36.2513 238.47 36.4433C238.806 36.6193 239.222 36.7953 239.718 36.9713C240.214 37.1313 240.758 37.3073 241.35 37.4993C241.942 37.6913 242.486 37.9393 242.982 38.2433C243.478 38.5313 243.894 38.8993 244.23 39.3473C244.566 39.7793 244.734 40.3233 244.734 40.9793C244.734 41.6353 244.598 42.2353 244.326 42.7793C244.07 43.3073 243.694 43.7633 243.198 44.1473C242.718 44.5313 242.126 44.8273 241.422 45.0353C240.734 45.2433 239.958 45.3473 239.094 45.3473C237.894 45.3473 236.83 45.2273 235.902 44.9873C234.974 44.7313 234.07 44.2993 233.19 43.6913C233.078 43.6113 232.99 43.5393 232.926 43.4753C232.878 43.4113 232.854 43.2673 232.854 43.0433V40.3793C232.854 40.1713 232.958 40.0673 233.166 40.0673H235.374C235.582 40.0673 235.686 40.1713 235.686 40.3793V41.2433C236.166 41.4673 236.694 41.6513 237.27 41.7953C237.846 41.9233 238.366 41.9873 238.83 41.9873C239.182 41.9873 239.462 41.9393 239.67 41.8433C239.894 41.7313 240.006 41.5633 240.006 41.3393C240.006 41.1313 239.838 40.9393 239.502 40.7633C239.166 40.5713 238.742 40.3793 238.23 40.1873C237.734 39.9953 237.19 39.7873 236.598 39.5633C236.022 39.3233 235.478 39.0433 234.966 38.7233C234.47 38.4033 234.054 38.0273 233.718 37.5953C233.382 37.1633 233.214 36.6513 233.214 36.0593C233.214 35.3873 233.358 34.7953 233.646 34.2833C233.934 33.7713 234.326 33.3473 234.822 33.0113C235.318 32.6593 235.902 32.3953 236.574 32.2193C237.246 32.0433 237.958 31.9553 238.71 31.9553C239.318 31.9553 239.894 32.0033 240.438 32.0993C240.982 32.1793 241.478 32.2833 241.926 32.4113C242.374 32.5393 242.766 32.6753 243.102 32.8193C243.454 32.9633 243.742 33.0913 243.966 33.2033C244.046 33.2353 244.118 33.2993 244.182 33.3953C244.262 33.4753 244.302 33.6113 244.302 33.8033V36.4433C244.302 36.6513 244.198 36.7553 243.99 36.7553H241.782C241.574 36.7553 241.47 36.6513 241.47 36.4433V35.5553Z" fill="white"/>
<mask id="path-2-inside-1_24_1301" fill="white">
<path fill-rule="evenodd" clip-rule="evenodd" d="M54.227 69.006C52.8923 70.9821 50.0724 71.7514 47.9624 69.2718C46.8747 69.5742 45.5907 70.3632 44.413 69.5644C42.9049 68.5419 43.3384 64.6587 49.4574 63.5954C56.7475 62.3282 60.4392 69.5152 54.2254 69.006H54.227ZM42.7086 42.3679C43.0652 42.5409 43.5167 42.434 43.7178 42.1274C43.9207 41.8222 43.7947 41.434 43.4398 41.2596C43.0848 41.0866 42.6334 41.1949 42.4306 41.5001C42.2294 41.8053 42.3537 42.1935 42.7086 42.3679ZM43.0848 38.8039C43.4398 38.9769 43.8912 38.87 44.094 38.5649C44.2952 38.2582 44.1709 37.8715 43.8143 37.6971C43.4578 37.5227 43.008 37.631 42.8051 37.9362C42.604 38.2428 42.7283 38.6309 43.0848 38.8039ZM46.9123 40.8447C47.2672 41.0177 47.7187 40.9108 47.9215 40.6056C48.1227 40.299 47.9984 39.9108 47.6418 39.7378C47.2852 39.5648 46.8354 39.6717 46.6326 39.9783C46.4314 40.2849 46.5557 40.6717 46.9123 40.8461V40.8447ZM18.7102 43.8587C19.1191 43.8587 19.4511 44.1442 19.4511 44.4944C19.4511 44.8446 19.1191 45.1316 18.7102 45.1316C18.3012 45.1316 17.9692 44.8475 17.9692 44.4944C17.9692 44.1414 18.3012 43.8587 18.7102 43.8587ZM16.9927 47.1175C17.4016 47.1175 17.7337 47.403 17.7337 47.7546C17.7337 48.1062 17.4016 48.3903 16.9927 48.3903C16.5838 48.3903 16.2518 48.1048 16.2518 47.7546C16.2518 47.4044 16.5822 47.1175 16.9927 47.1175ZM21.4924 46.9642C21.9013 46.9642 22.2334 47.2497 22.2334 47.6013C22.2334 47.9529 21.9013 48.237 21.4924 48.237C21.0835 48.237 20.7515 47.9529 20.7515 47.6013C20.7515 47.2497 21.0835 46.9642 21.4924 46.9642ZM81.3267 53.4746C80.8703 53.2636 80.5596 52.8516 80.5596 52.3748C80.5596 52.303 80.5661 52.2327 80.5792 52.1652L77.8869 52.4999C78.2827 52.7236 78.5461 53.1075 78.5461 53.5463C78.5461 54.2355 77.8967 54.7939 77.0952 54.7939C76.2937 54.7939 75.6444 54.2355 75.6444 53.5463C75.6444 53.1652 75.8423 52.8248 76.1564 52.5956L73.6652 52.4198C73.7765 52.5956 73.8386 52.7967 73.8386 53.0119C73.8386 53.7011 73.1893 54.2594 72.3878 54.2594C71.5863 54.2594 70.9369 53.7011 70.9369 53.0119C70.9369 52.6476 71.1185 52.3199 71.408 52.0907L68.8695 51.5154C68.9692 51.6856 69.0265 51.8783 69.0265 52.0808C69.0265 52.77 68.3771 53.3283 67.5756 53.3283C66.7742 53.3283 66.1248 52.77 66.1248 52.0808C66.1248 51.5829 66.4634 51.154 66.9525 50.9528L64.7721 49.929C64.7754 49.9627 64.777 49.9965 64.777 50.0316C64.777 50.7208 64.1277 51.2791 63.3262 51.2791C62.9614 51.2791 62.6278 51.1638 62.3742 50.9725C62.6278 51.8488 63.2788 53.1075 63.866 53.6828C64.1309 53.3691 64.5579 53.1652 65.0436 53.1652C65.8451 53.1652 66.4945 53.7236 66.4945 54.4127C66.4945 54.8698 66.2099 55.2678 65.7846 55.4858C65.7257 55.5632 65.6619 55.6448 65.5932 55.732C66.2508 56.7559 68.5292 58.4717 69.7347 59.2635C70.7488 59.9302 71.0678 60.0146 72.3747 59.3859C72.9717 59.099 73.8828 58.7207 74.5648 58.3353C73.8975 58.2228 73.3937 57.7179 73.3937 57.1117C73.3937 56.4225 74.0431 55.8642 74.8445 55.8642C75.646 55.8642 76.2954 56.4225 76.2954 57.1117C76.2954 57.1975 76.2839 57.2805 76.2659 57.362C77.8345 56.4928 80.3453 54.6223 81.3251 53.4774L81.3267 53.4746ZM69.635 55.3536C70.4348 55.3536 71.0858 55.912 71.0858 56.6011C71.0858 57.2903 70.4364 57.8487 69.635 57.8487C68.8335 57.8487 68.1841 57.2903 68.1841 56.6011C68.1841 55.912 68.8335 55.3536 69.635 55.3536ZM61.9113 49.7616C62.0144 49.3565 62.3497 49.0246 62.7881 48.8741C62.4053 48.3284 62.3137 48.2736 61.5139 47.9923C61.5384 48.6899 61.5777 49.2173 61.9113 49.7616ZM39.4275 55.7812L39.3212 55.7263C40.085 55.168 41.6831 54.5548 42.6563 53.9795C43.7375 53.3396 44.8677 52.7053 45.782 52.0668C45.8916 52.1947 49.8696 61.5139 50.2262 62.5195C47.6058 63.0455 46.3071 63.0863 44.1415 65.0947C42.6939 66.4378 41.9775 69.4153 44.2314 70.4153C45.8753 71.1452 46.6915 70.2451 47.6009 70.4153C48.2928 71.0552 51.3597 72.9511 54.3431 70.3534C55.2264 69.5855 54.4053 70.1101 57.8173 69.231C60.1301 72.0622 65.9858 73.6262 67.2027 69.4575C68.7795 64.6066 61.6137 61.8978 62.5035 57.2115C59.466 62.4745 68.5391 64.1594 65.7061 70.2535C64.849 69.397 65.1042 68.1284 62.5345 67.6614C64.1326 68.2944 64.6871 68.8865 64.5333 70.923C60.7157 71.2831 60.2004 70.0159 58.2851 68.6628C58.2442 67.1945 58.4405 66.7262 57.5654 65.5138C52.1088 62.1032 53.3323 53.2946 59.8684 46.4311C60.9381 47.6252 59.9011 50.4943 63.7482 55.2636C65.2465 57.1201 67.3565 59.6011 70.7112 61.1974C71.1512 61.407 74.5011 59.4112 75.0703 59.1257C78.3154 57.4985 81.1369 55.1933 83.1177 53.2144C83.5038 54.3143 84.3036 55.2875 85.2065 55.9795C87.0335 54.9486 86.7653 53.4943 86.6557 52.4999L88.8769 52.3734C89.6735 50.7813 88.6675 49.8038 86.9828 49.3692C87.5667 48.6238 88.3928 48.0345 89.0895 47.0542C89.6457 46.2722 90.138 44.9923 90.7268 44.1794C91.9013 44.6309 92.3478 45.4002 93.5157 45.929C91.9847 43.6717 90.7399 44.5127 91.0033 42.351C92.4296 42.704 93.0102 43.4354 94.3744 43.8953C93.7937 42.7617 92.5441 42.3791 91.2781 41.6745C90.8463 39.7097 91.8276 39.2512 92.9039 38.1584C95.099 35.9278 99.8833 30.4595 93.7136 29.7492C87.4424 29.0263 86.7031 30.887 83.8391 29.0966C81.8517 27.8533 78.9991 26.7858 76.1253 26.3738C74.5158 26.1431 71.5699 26.3456 70.6442 26.1515C68.2577 25.6508 56.6216 13.5793 58.6482 29.7253C58.9279 31.963 59.4039 31.4496 58.2753 33.2049C57.3168 34.6943 57.3691 34.6212 55.7367 34.9587C53.3388 35.4524 57.091 35.0937 57.2301 35.0797C56.5137 38.1106 57.2088 36.0726 54.541 38.1106L56.5889 37.541C56.2552 41.3257 57.2023 42.2807 59.0473 45.6576C54.6245 52.296 51.7391 55.6054 53.805 62.8275L51.6852 62.6081C50.0151 59.8993 46.2907 50.5633 45.9015 47.2961C48.5185 45.1555 50.7152 43.6534 51.4284 39.5142C52.1595 35.2625 50.6253 32.0291 48.1292 29.8252C46.3022 28.212 44.6698 27.5397 44.3639 26.7169C43.0881 23.2866 42.972 21.3907 40.0687 17.7944C38.4559 15.7959 37.9521 15.7227 39.9836 13.8198C40.8178 14.2825 41.9873 15.9984 42.9327 16.9548C43.973 18.0068 44.9969 19.1123 46.1157 19.8408C53.9424 24.9406 60.3934 16.568 57.9252 12.0294C55.9412 8.38106 48.9667 5.59348 44.66 4.25594C40.4351 2.94373 37.6904 3.24471 33.827 8.67641C32.8374 10.0702 31.8086 11.997 30.8124 13.2685C26.6611 13.5047 22.9858 14.6046 19.7586 16.0265C11.5051 19.6636 16.8831 19.4948 10.0886 18.0209C10.9326 16.1981 13.5611 14.2192 15.0087 12.8775C25.912 2.7848 14.2252 -3.61876 5.80313 2.22503C0.559186 5.86351 -1.61788 15.8943 1.3165 20.1207C2.48764 21.807 5.90127 24.0503 7.96875 24.7057C7.6318 28.2626 8.48889 31.0699 9.74999 34.0136C10.7347 36.3089 11.1796 35.555 10.0886 37.6703C9.48992 38.8293 9.0074 40.2892 8.80784 41.6942C7.80845 48.7166 12.1691 52.8628 19.613 53.4226L19.6834 55.4422C13.7999 54.8304 9.72055 60.7839 16.3646 62.0525C18.8868 67.1579 21.9733 64.8683 23.5893 65.4435C24.8913 65.9076 26.3095 66.4927 27.7374 65.037C31.2917 61.9836 27.2745 58.5631 26.3553 57.7122C33.3461 57.8374 30.5442 57.6813 36.1545 56.8641L36.0449 57.1848C35.7571 57.6096 35.5935 58.1032 35.5935 58.6292C35.5935 60.2185 37.0918 61.5054 38.9401 61.5054C40.7884 61.5054 42.285 60.2171 42.285 58.6292C42.285 57.182 41.0435 55.9851 39.4259 55.7826L39.4275 55.7812ZM71.3393 27.16L72.7509 27.1473C72.8539 31.797 74.8135 27.3076 76.562 27.3386C76.9153 27.9715 76.6438 28.3245 76.4933 29.2021C76.0811 31.5987 77.069 31.7745 78.4365 29.6916C80.692 26.2542 80.4287 29.3681 80.5481 31.0685C82.156 30.9813 81.7765 30.392 82.8266 29.6058C85.8395 31.3357 84.7027 30.7577 88.8164 30.5481C89.9597 30.489 91.193 30.43 92.3674 30.4918C95.2675 30.6437 96.3863 30.9785 95.1742 33.5677C94.1536 35.7477 91.7344 37.9741 90.7841 38.818L89.6457 36.0529H89.2711C89.4052 37.78 90.1462 39.2864 89.9843 41.1386C87.6371 39.8743 85.357 39.8588 83.0883 40.0908C84.7289 40.0458 90.367 40.2962 89.9417 42.8756C87.5357 42.1499 86.1977 41.1372 83.0981 40.7603C80.0868 43.9853 75.5904 43.9417 73.572 43.081C74.7513 39.8785 74.2492 40.2104 75.9126 39.9319C81.927 38.9263 75.7949 35.7998 71.8251 36.4622C71.0187 38.0726 72.5857 39.1274 73.8631 39.7646L72.8392 42.839C71.9478 43.9431 62.4985 36.8659 66.9574 36.51C63.2248 35.9559 61.7461 35.9573 57.9138 36.5058L58.5042 35.0262C62.0536 34.6802 65.2972 35.6437 67.3025 35.7702C64.1669 34.4904 61.1197 34.4257 58.8968 34.3441C59.291 32.9025 62.0929 30.6311 62.968 29.2682C61.5319 29.7324 60.8531 30.5143 59.9191 31.1529C59.52 28.8322 58.9164 25.5524 59.9518 23.3963C60.6666 21.9041 61.3421 22.1164 62.9794 22.7493C64.27 23.2486 65.5376 24.0236 66.2917 24.5074C69.177 26.3611 69.2735 27.1037 71.3393 27.1557V27.16ZM80.1555 35.2653C81.1173 33.527 84.6193 33.9672 85.0969 36.3877L84.0681 35.6816C82.8806 34.8251 81.5639 34.8884 80.1539 35.2653H80.1555ZM67.3826 31.9616C68.1776 30.2457 71.83 30.5481 72.2553 33.1149C71.4342 32.5157 71.2346 32.1557 70.0177 31.8716C69.2375 31.6901 68.2446 31.6873 67.3826 31.9616ZM75.0784 45.5591C73.4411 46.5914 70.1927 45.5099 69.4567 43.967C71.5127 44.486 72.6675 45.1709 75.0784 45.5591ZM86.7391 32.6479C87.3672 32.0755 87.5177 32.0235 88.5138 31.8139C95.0107 30.4356 94.6296 34.1641 91.4989 35.3005C92.0288 34.5199 92.6749 33.9981 92.5195 32.8715C90.7906 32.2907 88.6365 32.5692 86.7391 32.6479ZM16.9469 32.8336C16.7768 29.5931 19.0079 28.0938 22.6881 28.783C20.2984 29.5242 19.2597 28.904 16.9469 32.8336ZM60.7484 27.0699C59.7653 20.7536 66.0659 25.0151 66.9672 27.8913C64.728 26.6382 63.7613 25.1262 61.8639 24.8801C61.1949 25.7141 61.419 25.9406 61.1458 26.5327C60.9201 27.0249 61.0281 26.7732 60.7468 27.0713L60.7484 27.0699ZM31.3571 27.596C31.8151 26.475 32.9666 25.5833 34.8951 25.5636C36.6354 25.5468 38.0781 26.4455 38.5606 27.6002C36.0106 26.61 34.3782 26.2851 31.3571 27.596ZM23.1739 64.1439C20.1855 65.3718 17.6388 64.1214 17.4278 61.158C10.4468 61.1383 14.8009 53.8572 22.9547 57.0892C30.4902 60.0779 27.8519 67.7247 23.1755 64.1439H23.1739ZM23.398 53.3283C25.0353 52.6631 25.8793 52.8473 28.974 51.3312L30.5556 53.3115C27.9337 53.5646 26.0183 53.5449 23.398 53.3269V53.3283ZM84.3314 52.1061C85.9523 52.0485 85.6988 53.8614 85.3995 54.7671C84.6422 54.2974 84.0075 53.3016 84.3314 52.1061ZM84.7894 51.0429C85.2834 49.936 87.6502 49.7363 88.0689 51.5745C86.2517 51.6828 86.1503 51.7376 84.7894 51.0429ZM43.1748 48.4564C42.5369 49.2356 40.7262 50.1118 39.8299 50.5323L39.9149 49.0077L43.1748 48.4564ZM34.8787 50.3312L34.6137 48.1934C35.407 48.3369 36.0793 48.5422 36.8448 48.6758L38.5966 49.0809C38.6326 49.0274 38.7372 49.1343 38.801 49.1695C38.7356 55.137 31.5812 54.649 30.0568 50.808C30.5393 50.2806 32.6984 48.8235 33.3412 48.4409L34.8771 50.3312H34.8787ZM83.862 41.7898C85.1296 41.8841 88.8017 42.8686 89.6391 43.5479C87.4801 54.2439 68.7648 53.2482 61.2718 46.3861C58.7071 44.0359 56.8048 40.555 57.7649 37.2794C59.4807 36.5663 62.5607 36.5128 64.5742 36.7393C66.2769 43.922 78.6246 47.9107 83.862 41.7912V41.7898ZM30.3021 34.579C35.214 33.6395 34.7299 37.8813 30.1484 38.7786C25.4458 39.6984 24.7278 35.6465 30.3021 34.579ZM7.6089 19.4597C9.70255 18.6003 9.94954 18.9716 12.0759 19.6031C14.7469 20.3978 14.2317 20.1291 16.0669 19.1249C20.9134 16.6538 26.2113 13.7002 33.3641 14.5568C32.2764 12.9042 32.3598 12.9619 33.4082 11.3515C34.4632 9.73265 36.4571 6.96054 37.8605 5.81851C42.4567 2.08439 53.5073 8.8058 55.722 11.1166C60.2511 15.8423 53.5204 21.9406 48.8244 20.0968C45.3143 18.717 41.2643 13.2811 39.0529 10.322L39.5142 12.8648C34.8395 15.966 39.2525 16.952 42.0151 23.3654C42.6841 24.9195 42.779 26.0053 43.2893 27.4019C43.6328 28.3386 44.0646 28.2401 44.9757 28.7802C46.5574 29.7169 48.2535 31.3019 49.1941 32.8842C50.2752 34.6985 51.1078 39.5437 49.6144 41.2062C47.5895 48.0401 37.4811 49.2299 33.9922 46.5929C36.7336 45.1541 37.8589 45.1372 39.4406 42.7828C41.8679 39.1668 40.7328 34.1373 36.0253 32.4932C33.0026 31.4384 28.7531 32.0558 26.0739 33.6254C17.701 38.5353 23.0365 48.057 33.2316 46.6646C32.1292 48.2482 28.7384 50.4015 26.0625 51.4184C19.9778 53.7306 11.1894 52.1694 9.97571 45.3158C9.40486 42.0978 10.5089 38.6844 12.2035 36.4875C11.366 34.2175 10.1115 32.3146 9.43921 29.5987C9.11371 28.2823 8.84874 26.679 9.11862 25.3274C9.32962 24.2697 10.2963 23.1769 10.823 22.3105C10.0657 22.7029 9.2462 22.9912 8.60829 23.6748C5.79659 23.122 1.79248 20.018 1.32958 17.3725C0.598442 13.201 2.75098 5.77209 6.05502 3.30096C13.4417 -2.22216 23.5419 3.14063 14.9956 11.2094C12.4194 13.6848 9.28382 16.4344 7.60727 19.4597H7.6089Z"/>
</mask>
<path fill-rule="evenodd" clip-rule="evenodd" d="M54.227 69.006C52.8923 70.9821 50.0724 71.7514 47.9624 69.2718C46.8747 69.5742 45.5907 70.3632 44.413 69.5644C42.9049 68.5419 43.3384 64.6587 49.4574 63.5954C56.7475 62.3282 60.4392 69.5152 54.2254 69.006H54.227ZM42.7086 42.3679C43.0652 42.5409 43.5167 42.434 43.7178 42.1274C43.9207 41.8222 43.7947 41.434 43.4398 41.2596C43.0848 41.0866 42.6334 41.1949 42.4306 41.5001C42.2294 41.8053 42.3537 42.1935 42.7086 42.3679ZM43.0848 38.8039C43.4398 38.9769 43.8912 38.87 44.094 38.5649C44.2952 38.2582 44.1709 37.8715 43.8143 37.6971C43.4578 37.5227 43.008 37.631 42.8051 37.9362C42.604 38.2428 42.7283 38.6309 43.0848 38.8039ZM46.9123 40.8447C47.2672 41.0177 47.7187 40.9108 47.9215 40.6056C48.1227 40.299 47.9984 39.9108 47.6418 39.7378C47.2852 39.5648 46.8354 39.6717 46.6326 39.9783C46.4314 40.2849 46.5557 40.6717 46.9123 40.8461V40.8447ZM18.7102 43.8587C19.1191 43.8587 19.4511 44.1442 19.4511 44.4944C19.4511 44.8446 19.1191 45.1316 18.7102 45.1316C18.3012 45.1316 17.9692 44.8475 17.9692 44.4944C17.9692 44.1414 18.3012 43.8587 18.7102 43.8587ZM16.9927 47.1175C17.4016 47.1175 17.7337 47.403 17.7337 47.7546C17.7337 48.1062 17.4016 48.3903 16.9927 48.3903C16.5838 48.3903 16.2518 48.1048 16.2518 47.7546C16.2518 47.4044 16.5822 47.1175 16.9927 47.1175ZM21.4924 46.9642C21.9013 46.9642 22.2334 47.2497 22.2334 47.6013C22.2334 47.9529 21.9013 48.237 21.4924 48.237C21.0835 48.237 20.7515 47.9529 20.7515 47.6013C20.7515 47.2497 21.0835 46.9642 21.4924 46.9642ZM81.3267 53.4746C80.8703 53.2636 80.5596 52.8516 80.5596 52.3748C80.5596 52.303 80.5661 52.2327 80.5792 52.1652L77.8869 52.4999C78.2827 52.7236 78.5461 53.1075 78.5461 53.5463C78.5461 54.2355 77.8967 54.7939 77.0952 54.7939C76.2937 54.7939 75.6444 54.2355 75.6444 53.5463C75.6444 53.1652 75.8423 52.8248 76.1564 52.5956L73.6652 52.4198C73.7765 52.5956 73.8386 52.7967 73.8386 53.0119C73.8386 53.7011 73.1893 54.2594 72.3878 54.2594C71.5863 54.2594 70.9369 53.7011 70.9369 53.0119C70.9369 52.6476 71.1185 52.3199 71.408 52.0907L68.8695 51.5154C68.9692 51.6856 69.0265 51.8783 69.0265 52.0808C69.0265 52.77 68.3771 53.3283 67.5756 53.3283C66.7742 53.3283 66.1248 52.77 66.1248 52.0808C66.1248 51.5829 66.4634 51.154 66.9525 50.9528L64.7721 49.929C64.7754 49.9627 64.777 49.9965 64.777 50.0316C64.777 50.7208 64.1277 51.2791 63.3262 51.2791C62.9614 51.2791 62.6278 51.1638 62.3742 50.9725C62.6278 51.8488 63.2788 53.1075 63.866 53.6828C64.1309 53.3691 64.5579 53.1652 65.0436 53.1652C65.8451 53.1652 66.4945 53.7236 66.4945 54.4127C66.4945 54.8698 66.2099 55.2678 65.7846 55.4858C65.7257 55.5632 65.6619 55.6448 65.5932 55.732C66.2508 56.7559 68.5292 58.4717 69.7347 59.2635C70.7488 59.9302 71.0678 60.0146 72.3747 59.3859C72.9717 59.099 73.8828 58.7207 74.5648 58.3353C73.8975 58.2228 73.3937 57.7179 73.3937 57.1117C73.3937 56.4225 74.0431 55.8642 74.8445 55.8642C75.646 55.8642 76.2954 56.4225 76.2954 57.1117C76.2954 57.1975 76.2839 57.2805 76.2659 57.362C77.8345 56.4928 80.3453 54.6223 81.3251 53.4774L81.3267 53.4746ZM69.635 55.3536C70.4348 55.3536 71.0858 55.912 71.0858 56.6011C71.0858 57.2903 70.4364 57.8487 69.635 57.8487C68.8335 57.8487 68.1841 57.2903 68.1841 56.6011C68.1841 55.912 68.8335 55.3536 69.635 55.3536ZM61.9113 49.7616C62.0144 49.3565 62.3497 49.0246 62.7881 48.8741C62.4053 48.3284 62.3137 48.2736 61.5139 47.9923C61.5384 48.6899 61.5777 49.2173 61.9113 49.7616ZM39.4275 55.7812L39.3212 55.7263C40.085 55.168 41.6831 54.5548 42.6563 53.9795C43.7375 53.3396 44.8677 52.7053 45.782 52.0668C45.8916 52.1947 49.8696 61.5139 50.2262 62.5195C47.6058 63.0455 46.3071 63.0863 44.1415 65.0947C42.6939 66.4378 41.9775 69.4153 44.2314 70.4153C45.8753 71.1452 46.6915 70.2451 47.6009 70.4153C48.2928 71.0552 51.3597 72.9511 54.3431 70.3534C55.2264 69.5855 54.4053 70.1101 57.8173 69.231C60.1301 72.0622 65.9858 73.6262 67.2027 69.4575C68.7795 64.6066 61.6137 61.8978 62.5035 57.2115C59.466 62.4745 68.5391 64.1594 65.7061 70.2535C64.849 69.397 65.1042 68.1284 62.5345 67.6614C64.1326 68.2944 64.6871 68.8865 64.5333 70.923C60.7157 71.2831 60.2004 70.0159 58.2851 68.6628C58.2442 67.1945 58.4405 66.7262 57.5654 65.5138C52.1088 62.1032 53.3323 53.2946 59.8684 46.4311C60.9381 47.6252 59.9011 50.4943 63.7482 55.2636C65.2465 57.1201 67.3565 59.6011 70.7112 61.1974C71.1512 61.407 74.5011 59.4112 75.0703 59.1257C78.3154 57.4985 81.1369 55.1933 83.1177 53.2144C83.5038 54.3143 84.3036 55.2875 85.2065 55.9795C87.0335 54.9486 86.7653 53.4943 86.6557 52.4999L88.8769 52.3734C89.6735 50.7813 88.6675 49.8038 86.9828 49.3692C87.5667 48.6238 88.3928 48.0345 89.0895 47.0542C89.6457 46.2722 90.138 44.9923 90.7268 44.1794C91.9013 44.6309 92.3478 45.4002 93.5157 45.929C91.9847 43.6717 90.7399 44.5127 91.0033 42.351C92.4296 42.704 93.0102 43.4354 94.3744 43.8953C93.7937 42.7617 92.5441 42.3791 91.2781 41.6745C90.8463 39.7097 91.8276 39.2512 92.9039 38.1584C95.099 35.9278 99.8833 30.4595 93.7136 29.7492C87.4424 29.0263 86.7031 30.887 83.8391 29.0966C81.8517 27.8533 78.9991 26.7858 76.1253 26.3738C74.5158 26.1431 71.5699 26.3456 70.6442 26.1515C68.2577 25.6508 56.6216 13.5793 58.6482 29.7253C58.9279 31.963 59.4039 31.4496 58.2753 33.2049C57.3168 34.6943 57.3691 34.6212 55.7367 34.9587C53.3388 35.4524 57.091 35.0937 57.2301 35.0797C56.5137 38.1106 57.2088 36.0726 54.541 38.1106L56.5889 37.541C56.2552 41.3257 57.2023 42.2807 59.0473 45.6576C54.6245 52.296 51.7391 55.6054 53.805 62.8275L51.6852 62.6081C50.0151 59.8993 46.2907 50.5633 45.9015 47.2961C48.5185 45.1555 50.7152 43.6534 51.4284 39.5142C52.1595 35.2625 50.6253 32.0291 48.1292 29.8252C46.3022 28.212 44.6698 27.5397 44.3639 26.7169C43.0881 23.2866 42.972 21.3907 40.0687 17.7944C38.4559 15.7959 37.9521 15.7227 39.9836 13.8198C40.8178 14.2825 41.9873 15.9984 42.9327 16.9548C43.973 18.0068 44.9969 19.1123 46.1157 19.8408C53.9424 24.9406 60.3934 16.568 57.9252 12.0294C55.9412 8.38106 48.9667 5.59348 44.66 4.25594C40.4351 2.94373 37.6904 3.24471 33.827 8.67641C32.8374 10.0702 31.8086 11.997 30.8124 13.2685C26.6611 13.5047 22.9858 14.6046 19.7586 16.0265C11.5051 19.6636 16.8831 19.4948 10.0886 18.0209C10.9326 16.1981 13.5611 14.2192 15.0087 12.8775C25.912 2.7848 14.2252 -3.61876 5.80313 2.22503C0.559186 5.86351 -1.61788 15.8943 1.3165 20.1207C2.48764 21.807 5.90127 24.0503 7.96875 24.7057C7.6318 28.2626 8.48889 31.0699 9.74999 34.0136C10.7347 36.3089 11.1796 35.555 10.0886 37.6703C9.48992 38.8293 9.0074 40.2892 8.80784 41.6942C7.80845 48.7166 12.1691 52.8628 19.613 53.4226L19.6834 55.4422C13.7999 54.8304 9.72055 60.7839 16.3646 62.0525C18.8868 67.1579 21.9733 64.8683 23.5893 65.4435C24.8913 65.9076 26.3095 66.4927 27.7374 65.037C31.2917 61.9836 27.2745 58.5631 26.3553 57.7122C33.3461 57.8374 30.5442 57.6813 36.1545 56.8641L36.0449 57.1848C35.7571 57.6096 35.5935 58.1032 35.5935 58.6292C35.5935 60.2185 37.0918 61.5054 38.9401 61.5054C40.7884 61.5054 42.285 60.2171 42.285 58.6292C42.285 57.182 41.0435 55.9851 39.4259 55.7826L39.4275 55.7812ZM71.3393 27.16L72.7509 27.1473C72.8539 31.797 74.8135 27.3076 76.562 27.3386C76.9153 27.9715 76.6438 28.3245 76.4933 29.2021C76.0811 31.5987 77.069 31.7745 78.4365 29.6916C80.692 26.2542 80.4287 29.3681 80.5481 31.0685C82.156 30.9813 81.7765 30.392 82.8266 29.6058C85.8395 31.3357 84.7027 30.7577 88.8164 30.5481C89.9597 30.489 91.193 30.43 92.3674 30.4918C95.2675 30.6437 96.3863 30.9785 95.1742 33.5677C94.1536 35.7477 91.7344 37.9741 90.7841 38.818L89.6457 36.0529H89.2711C89.4052 37.78 90.1462 39.2864 89.9843 41.1386C87.6371 39.8743 85.357 39.8588 83.0883 40.0908C84.7289 40.0458 90.367 40.2962 89.9417 42.8756C87.5357 42.1499 86.1977 41.1372 83.0981 40.7603C80.0868 43.9853 75.5904 43.9417 73.572 43.081C74.7513 39.8785 74.2492 40.2104 75.9126 39.9319C81.927 38.9263 75.7949 35.7998 71.8251 36.4622C71.0187 38.0726 72.5857 39.1274 73.8631 39.7646L72.8392 42.839C71.9478 43.9431 62.4985 36.8659 66.9574 36.51C63.2248 35.9559 61.7461 35.9573 57.9138 36.5058L58.5042 35.0262C62.0536 34.6802 65.2972 35.6437 67.3025 35.7702C64.1669 34.4904 61.1197 34.4257 58.8968 34.3441C59.291 32.9025 62.0929 30.6311 62.968 29.2682C61.5319 29.7324 60.8531 30.5143 59.9191 31.1529C59.52 28.8322 58.9164 25.5524 59.9518 23.3963C60.6666 21.9041 61.3421 22.1164 62.9794 22.7493C64.27 23.2486 65.5376 24.0236 66.2917 24.5074C69.177 26.3611 69.2735 27.1037 71.3393 27.1557V27.16ZM80.1555 35.2653C81.1173 33.527 84.6193 33.9672 85.0969 36.3877L84.0681 35.6816C82.8806 34.8251 81.5639 34.8884 80.1539 35.2653H80.1555ZM67.3826 31.9616C68.1776 30.2457 71.83 30.5481 72.2553 33.1149C71.4342 32.5157 71.2346 32.1557 70.0177 31.8716C69.2375 31.6901 68.2446 31.6873 67.3826 31.9616ZM75.0784 45.5591C73.4411 46.5914 70.1927 45.5099 69.4567 43.967C71.5127 44.486 72.6675 45.1709 75.0784 45.5591ZM86.7391 32.6479C87.3672 32.0755 87.5177 32.0235 88.5138 31.8139C95.0107 30.4356 94.6296 34.1641 91.4989 35.3005C92.0288 34.5199 92.6749 33.9981 92.5195 32.8715C90.7906 32.2907 88.6365 32.5692 86.7391 32.6479ZM16.9469 32.8336C16.7768 29.5931 19.0079 28.0938 22.6881 28.783C20.2984 29.5242 19.2597 28.904 16.9469 32.8336ZM60.7484 27.0699C59.7653 20.7536 66.0659 25.0151 66.9672 27.8913C64.728 26.6382 63.7613 25.1262 61.8639 24.8801C61.1949 25.7141 61.419 25.9406 61.1458 26.5327C60.9201 27.0249 61.0281 26.7732 60.7468 27.0713L60.7484 27.0699ZM31.3571 27.596C31.8151 26.475 32.9666 25.5833 34.8951 25.5636C36.6354 25.5468 38.0781 26.4455 38.5606 27.6002C36.0106 26.61 34.3782 26.2851 31.3571 27.596ZM23.1739 64.1439C20.1855 65.3718 17.6388 64.1214 17.4278 61.158C10.4468 61.1383 14.8009 53.8572 22.9547 57.0892C30.4902 60.0779 27.8519 67.7247 23.1755 64.1439H23.1739ZM23.398 53.3283C25.0353 52.6631 25.8793 52.8473 28.974 51.3312L30.5556 53.3115C27.9337 53.5646 26.0183 53.5449 23.398 53.3269V53.3283ZM84.3314 52.1061C85.9523 52.0485 85.6988 53.8614 85.3995 54.7671C84.6422 54.2974 84.0075 53.3016 84.3314 52.1061ZM84.7894 51.0429C85.2834 49.936 87.6502 49.7363 88.0689 51.5745C86.2517 51.6828 86.1503 51.7376 84.7894 51.0429ZM43.1748 48.4564C42.5369 49.2356 40.7262 50.1118 39.8299 50.5323L39.9149 49.0077L43.1748 48.4564ZM34.8787 50.3312L34.6137 48.1934C35.407 48.3369 36.0793 48.5422 36.8448 48.6758L38.5966 49.0809C38.6326 49.0274 38.7372 49.1343 38.801 49.1695C38.7356 55.137 31.5812 54.649 30.0568 50.808C30.5393 50.2806 32.6984 48.8235 33.3412 48.4409L34.8771 50.3312H34.8787ZM83.862 41.7898C85.1296 41.8841 88.8017 42.8686 89.6391 43.5479C87.4801 54.2439 68.7648 53.2482 61.2718 46.3861C58.7071 44.0359 56.8048 40.555 57.7649 37.2794C59.4807 36.5663 62.5607 36.5128 64.5742 36.7393C66.2769 43.922 78.6246 47.9107 83.862 41.7912V41.7898ZM30.3021 34.579C35.214 33.6395 34.7299 37.8813 30.1484 38.7786C25.4458 39.6984 24.7278 35.6465 30.3021 34.579ZM7.6089 19.4597C9.70255 18.6003 9.94954 18.9716 12.0759 19.6031C14.7469 20.3978 14.2317 20.1291 16.0669 19.1249C20.9134 16.6538 26.2113 13.7002 33.3641 14.5568C32.2764 12.9042 32.3598 12.9619 33.4082 11.3515C34.4632 9.73265 36.4571 6.96054 37.8605 5.81851C42.4567 2.08439 53.5073 8.8058 55.722 11.1166C60.2511 15.8423 53.5204 21.9406 48.8244 20.0968C45.3143 18.717 41.2643 13.2811 39.0529 10.322L39.5142 12.8648C34.8395 15.966 39.2525 16.952 42.0151 23.3654C42.6841 24.9195 42.779 26.0053 43.2893 27.4019C43.6328 28.3386 44.0646 28.2401 44.9757 28.7802C46.5574 29.7169 48.2535 31.3019 49.1941 32.8842C50.2752 34.6985 51.1078 39.5437 49.6144 41.2062C47.5895 48.0401 37.4811 49.2299 33.9922 46.5929C36.7336 45.1541 37.8589 45.1372 39.4406 42.7828C41.8679 39.1668 40.7328 34.1373 36.0253 32.4932C33.0026 31.4384 28.7531 32.0558 26.0739 33.6254C17.701 38.5353 23.0365 48.057 33.2316 46.6646C32.1292 48.2482 28.7384 50.4015 26.0625 51.4184C19.9778 53.7306 11.1894 52.1694 9.97571 45.3158C9.40486 42.0978 10.5089 38.6844 12.2035 36.4875C11.366 34.2175 10.1115 32.3146 9.43921 29.5987C9.11371 28.2823 8.84874 26.679 9.11862 25.3274C9.32962 24.2697 10.2963 23.1769 10.823 22.3105C10.0657 22.7029 9.2462 22.9912 8.60829 23.6748C5.79659 23.122 1.79248 20.018 1.32958 17.3725C0.598442 13.201 2.75098 5.77209 6.05502 3.30096C13.4417 -2.22216 23.5419 3.14063 14.9956 11.2094C12.4194 13.6848 9.28382 16.4344 7.60727 19.4597H7.6089Z" fill="white" stroke="white" stroke-width="0.6" mask="url(#path-2-inside-1_24_1301)"/>
</svg>
