<svg width="23" height="22" viewBox="0 0 23 22" fill="none" xmlns="http://www.w3.org/2000/svg">
<g clip-path="url(#clip0_1227_1578)">
<path d="M14.6056 0.828125C15.9175 0.828125 16.9809 2.81243 16.9809 4.49346C16.9809 6.17449 15.9175 7.53762 14.6056 7.53762C13.2937 7.53762 12.2302 6.17474 12.2302 4.49346C12.2302 2.81218 13.2937 0.828125 14.6056 0.828125Z" fill="#1A365E"/>
<path d="M7.85631 0.828125C9.16823 0.828125 10.2317 2.81243 10.2317 4.49346C10.2317 6.17449 9.16823 7.53762 7.85631 7.53762C6.54439 7.53762 5.48096 6.17474 5.48096 4.49346C5.48096 2.81218 6.54439 0.828125 7.85631 0.828125Z" fill="#1A365E"/>
<path d="M0.742396 9.69457C0.185324 8.30774 0.429249 6.31285 1.54136 5.87116C2.65348 5.42947 4.21262 6.70814 4.76969 8.09497C5.32677 9.48179 4.87695 10.9642 3.76484 11.4058C2.65272 11.8475 1.29947 11.0814 0.742396 9.69457Z" fill="#1A365E"/>
<path d="M21.7193 9.69457C21.1622 11.0814 19.809 11.8475 18.6969 11.4058C17.5848 10.9642 17.1347 9.48179 17.692 8.09497C18.2491 6.70814 19.8082 5.42947 20.9203 5.87116C22.0325 6.31285 22.2764 8.30774 21.7193 9.69457Z" fill="#1A365E"/>
<path d="M19.7291 17.355C19.4743 16.2193 18.867 15.195 18.1953 14.2456C16.6215 12.0215 14.1006 9.77576 11.2308 9.77576C8.37291 9.77576 5.8406 12.021 4.26625 14.2456C3.59431 15.195 2.98704 16.219 2.73246 17.355C2.47763 18.491 2.61709 19.7611 3.32478 20.6838C4.03246 21.6065 5.37304 22.0671 6.42126 21.5677C7.04451 21.2707 7.54884 20.6719 8.2365 20.6142C8.86761 20.5613 9.42544 20.984 9.95209 21.3375C10.3327 21.5929 10.7914 21.8253 11.2308 21.8283C11.6702 21.8253 12.1289 21.5929 12.5095 21.3375C13.0359 20.984 13.5937 20.5615 14.2251 20.6142C14.9127 20.6717 15.4171 21.2707 16.0403 21.5677C17.0885 22.0671 18.4291 21.6065 19.1368 20.6838C19.8445 19.7611 19.9839 18.491 19.7291 17.355ZM13.7306 15.9868C13.4068 16.575 12.8959 17.0933 12.4644 17.4964C12.2324 17.7132 11.9887 17.9159 11.7349 18.1035C11.7344 18.1038 11.7339 18.1043 11.7333 18.1045C11.4352 18.3228 11.0264 18.3228 10.7282 18.1045C10.7277 18.104 10.7272 18.1038 10.7267 18.1035C10.4729 17.9162 10.2292 17.7132 9.99722 17.4964C9.56566 17.0933 9.05473 16.575 8.73094 15.9868C8.46343 15.501 8.32372 14.9673 8.46216 14.4112C8.59478 13.8782 9.01797 13.4101 9.53675 13.3445C10.1367 13.2689 10.835 13.6887 11.2308 14.1707C11.6263 13.6887 12.3249 13.2689 12.9248 13.3445C13.4436 13.4098 13.8668 13.8782 13.9994 14.4112C14.1379 14.9673 13.9981 15.501 13.7306 15.9868Z" fill="#1A365E"/>
</g>
<defs>
<clipPath id="clip0_1227_1578">
<rect width="21.5526" height="21" fill="white" transform="translate(0.45459 0.828125)"/>
</clipPath>
</defs>
</svg>
