<svg width="97" height="73" viewBox="0 0 97 73" fill="none" xmlns="http://www.w3.org/2000/svg">
<mask id="path-1-inside-1_821_2768" fill="white">
<path fill-rule="evenodd" clip-rule="evenodd" d="M54.227 69.0187C52.8923 70.9948 50.0724 71.7641 47.9624 69.2845C46.8747 69.5869 45.5907 70.3759 44.413 69.5771C42.9049 68.5546 43.3384 64.6714 49.4574 63.6081C56.7475 62.3409 60.4392 69.5279 54.2253 69.0187H54.227ZM42.7086 42.3806C43.0652 42.5536 43.5167 42.4467 43.7178 42.1401C43.9207 41.8349 43.7947 41.4467 43.4398 41.2723C43.0848 41.0993 42.6334 41.2076 42.4306 41.5128C42.2294 41.818 42.3537 42.2062 42.7086 42.3806ZM43.0848 38.8166C43.4398 38.9896 43.8912 38.8827 44.094 38.5775C44.2952 38.2709 44.1709 37.8842 43.8143 37.7098C43.4578 37.5354 43.008 37.6437 42.8051 37.9489C42.604 38.2555 42.7283 38.6436 43.0848 38.8166ZM46.9123 40.8574C47.2672 41.0304 47.7187 40.9235 47.9215 40.6183C48.1227 40.3117 47.9984 39.9235 47.6418 39.7505C47.2852 39.5775 46.8354 39.6844 46.6326 39.991C46.4314 40.2976 46.5557 40.6844 46.9123 40.8588V40.8574ZM18.7102 43.8714C19.1191 43.8714 19.4511 44.1569 19.4511 44.5071C19.4511 44.8573 19.1191 45.1443 18.7102 45.1443C18.3012 45.1443 17.9692 44.8601 17.9692 44.5071C17.9692 44.1541 18.3012 43.8714 18.7102 43.8714ZM16.9927 47.1302C17.4016 47.1302 17.7337 47.4157 17.7337 47.7673C17.7337 48.1189 17.4016 48.403 16.9927 48.403C16.5838 48.403 16.2518 48.1175 16.2518 47.7673C16.2518 47.4171 16.5822 47.1302 16.9927 47.1302ZM21.4924 46.9769C21.9013 46.9769 22.2334 47.2624 22.2334 47.614C22.2334 47.9656 21.9013 48.2497 21.4924 48.2497C21.0835 48.2497 20.7515 47.9656 20.7515 47.614C20.7515 47.2624 21.0835 46.9769 21.4924 46.9769ZM81.3267 53.4873C80.8703 53.2763 80.5596 52.8643 80.5596 52.3875C80.5596 52.3157 80.5661 52.2454 80.5792 52.1779L77.8869 52.5126C78.2827 52.7363 78.5461 53.1202 78.5461 53.559C78.5461 54.2482 77.8967 54.8066 77.0952 54.8066C76.2937 54.8066 75.6444 54.2482 75.6444 53.559C75.6444 53.1779 75.8423 52.8375 76.1563 52.6083L73.6652 52.4325C73.7765 52.6083 73.8386 52.8094 73.8386 53.0246C73.8386 53.7137 73.1892 54.2721 72.3878 54.2721C71.5863 54.2721 70.9369 53.7137 70.9369 53.0246C70.9369 52.6603 71.1185 52.3326 71.408 52.1034L68.8695 51.5281C68.9692 51.6983 69.0265 51.891 69.0265 52.0935C69.0265 52.7827 68.3771 53.341 67.5756 53.341C66.7742 53.341 66.1248 52.7827 66.1248 52.0935C66.1248 51.5956 66.4634 51.1667 66.9525 50.9655L64.7721 49.9416C64.7754 49.9754 64.777 50.0092 64.777 50.0443C64.777 50.7335 64.1277 51.2918 63.3262 51.2918C62.9614 51.2918 62.6278 51.1765 62.3742 50.9852C62.6278 51.8615 63.2788 53.1202 63.866 53.6955C64.1309 53.3818 64.5579 53.1779 65.0436 53.1779C65.8451 53.1779 66.4945 53.7362 66.4945 54.4254C66.4945 54.8825 66.2099 55.2805 65.7846 55.4985C65.7257 55.5759 65.6619 55.6575 65.5932 55.7447C66.2508 56.7685 68.5292 58.4844 69.7347 59.2762C70.7488 59.9429 71.0678 60.0273 72.3747 59.3986C72.9717 59.1117 73.8828 58.7334 74.5648 58.348C73.8975 58.2355 73.3937 57.7306 73.3937 57.1244C73.3937 56.4352 74.0431 55.8769 74.8445 55.8769C75.646 55.8769 76.2954 56.4352 76.2954 57.1244C76.2954 57.2102 76.2839 57.2932 76.2659 57.3747C77.8345 56.5055 80.3453 54.635 81.3251 53.4901L81.3267 53.4873ZM69.6349 55.3663C70.4348 55.3663 71.0858 55.9247 71.0858 56.6138C71.0858 57.303 70.4364 57.8614 69.6349 57.8614C68.8335 57.8614 68.1841 57.303 68.1841 56.6138C68.1841 55.9247 68.8335 55.3663 69.6349 55.3663ZM61.9113 49.7743C62.0144 49.3692 62.3497 49.0373 62.7881 48.8868C62.4053 48.3411 62.3137 48.2863 61.5139 48.005C61.5384 48.7026 61.5777 49.23 61.9113 49.7743ZM39.4275 55.7939L39.3212 55.739C40.085 55.1807 41.6831 54.5675 42.6563 53.9922C43.7375 53.3523 44.8677 52.718 45.782 52.0794C45.8916 52.2074 49.8696 61.5266 50.2262 62.5322C47.6058 63.0582 46.3071 63.099 44.1415 65.1074C42.6939 66.4505 41.9775 69.428 44.2314 70.428C45.8753 71.1579 46.6915 70.2578 47.6009 70.428C48.2928 71.0679 51.3597 72.9638 54.3431 70.3661C55.2264 69.5982 54.4053 70.1228 57.8173 69.2437C60.1301 72.0749 65.9858 73.6389 67.2027 69.4702C68.7795 64.6193 61.6137 61.9105 62.5035 57.2242C59.466 62.4872 68.5391 64.1721 65.7061 70.2662C64.849 69.4097 65.1042 68.1411 62.5345 67.6741C64.1326 68.307 64.6871 68.8992 64.5333 70.9357C60.7157 71.2958 60.2004 70.0285 58.2851 68.6755C58.2442 67.2072 58.4405 66.7389 57.5654 65.5265C52.1088 62.1159 53.3323 53.3073 59.8684 46.4438C60.9381 47.6379 59.9011 50.507 63.7482 55.2763C65.2465 57.1328 67.3565 59.6138 70.7112 61.2101C71.1512 61.4197 74.5011 59.4239 75.0703 59.1384C78.3154 57.5112 81.1369 55.206 83.1177 53.2271C83.5038 54.327 84.3036 55.3002 85.2065 55.9922C87.0335 54.9613 86.7653 53.507 86.6557 52.5126L88.8769 52.3861C89.6735 50.794 88.6675 49.8165 86.9828 49.3819C87.5667 48.6365 88.3928 48.0472 89.0895 47.0669C89.6457 46.2849 90.138 45.005 90.7268 44.1921C91.9013 44.6436 92.3478 45.4129 93.5157 45.9417C91.9847 43.6844 90.7399 44.5254 91.0033 42.3637C92.4296 42.7167 93.0102 43.4481 94.3744 43.908C93.7937 42.7744 92.5441 42.3918 91.2781 41.6872C90.8463 39.7224 91.8277 39.2639 92.9039 38.1711C95.099 35.9405 99.8833 30.4722 93.7136 29.7619C87.4424 29.039 86.7031 30.8997 83.8391 29.1093C81.8517 27.866 78.9991 26.7985 76.1253 26.3864C74.5158 26.1558 71.5699 26.3583 70.6441 26.1642C68.2577 25.6635 56.6216 13.592 58.6482 29.738C58.9279 31.9757 59.4039 31.4623 58.2753 33.2176C57.3168 34.707 57.3691 34.6339 55.7367 34.9714C53.3388 35.4651 57.091 35.1064 57.2301 35.0924C56.5137 38.1233 57.2088 36.0853 54.541 38.1233L56.5889 37.5536C56.2552 41.3384 57.2023 42.2934 59.0473 45.6703C54.6245 52.3087 51.7391 55.6181 53.805 62.8402L51.6852 62.6208C50.0151 59.912 46.2907 50.576 45.9015 47.3088C48.5185 45.1682 50.7152 43.6661 51.4284 39.5269C52.1595 35.2752 50.6253 32.0418 48.1292 29.8379C46.3022 28.2247 44.6698 27.5524 44.3639 26.7296C43.0881 23.2993 42.972 21.4034 40.0687 17.8071C38.4559 15.8085 37.9521 15.7354 39.9836 13.8325C40.8178 14.2952 41.9873 16.0111 42.9327 16.9675C43.973 18.0195 44.9969 19.125 46.1157 19.8535C53.9424 24.9533 60.3934 16.5807 57.9252 12.0421C55.9412 8.39375 48.9667 5.60617 44.66 4.26864C40.4351 2.95642 37.6904 3.2574 33.827 8.68911C32.8374 10.0829 31.8086 12.0097 30.8124 13.2812C26.6611 13.5174 22.9858 14.6173 19.7586 16.0392C11.5051 19.6763 16.8831 19.5075 10.0886 18.0336C10.9326 16.2108 13.5611 14.2319 15.0087 12.8902C25.912 2.79749 14.2252 -3.60607 5.80313 2.23773C0.559186 5.87621 -1.61788 15.907 1.3165 20.1334C2.48764 21.8197 5.90127 24.063 7.96875 24.7184C7.6318 28.2753 8.48889 31.0826 9.74999 34.0263C10.7347 36.3216 11.1796 35.5677 10.0886 37.683C9.48992 38.842 9.0074 40.3018 8.80784 41.7069C7.80845 48.7293 12.1691 52.8755 19.613 53.4353L19.6834 55.4549C13.7999 54.8431 9.72055 60.7966 16.3646 62.0652C18.8868 67.1706 21.9733 64.8809 23.5893 65.4562C24.8913 65.9203 26.3095 66.5054 27.7374 65.0497C31.2917 61.9963 27.2745 58.5758 26.3553 57.7249C33.3461 57.8501 30.5442 57.694 36.1545 56.8768L36.0449 57.1975C35.7571 57.6223 35.5935 58.1159 35.5935 58.6419C35.5935 60.2312 37.0918 61.5181 38.9401 61.5181C40.7884 61.5181 42.285 60.2298 42.285 58.6419C42.285 57.1947 41.0435 55.9978 39.4259 55.7953L39.4275 55.7939ZM71.3393 27.1727L72.7509 27.16C72.8539 31.8097 74.8135 27.3203 76.562 27.3513C76.9153 27.9842 76.6438 28.3372 76.4933 29.2148C76.0811 31.6114 77.069 31.7872 78.4365 29.7043C80.692 26.2669 80.4287 29.3808 80.5481 31.0812C82.156 30.994 81.7765 30.4047 82.8266 29.6185C85.8395 31.3484 84.7027 30.7703 88.8164 30.5608C89.9597 30.5017 91.193 30.4426 92.3674 30.5045C95.2675 30.6564 96.3863 30.9912 95.1742 33.5804C94.1536 35.7604 91.7344 37.9868 90.7841 38.8307L89.6457 36.0656H89.2711C89.4052 37.7927 90.1462 39.299 89.9843 41.1513C87.6371 39.8869 85.357 39.8715 83.0883 40.1035C84.7289 40.0585 90.367 40.3089 89.9417 42.8883C87.5357 42.1626 86.1977 41.1499 83.0981 40.773C80.0869 43.998 75.5904 43.9544 73.572 43.0936C74.7513 39.8912 74.2492 40.2231 75.9126 39.9446C81.927 38.939 75.7949 35.8125 71.8251 36.4749C71.0187 38.0853 72.5857 39.1401 73.8631 39.7772L72.8392 42.8517C71.9478 43.9558 62.4985 36.8786 66.9574 36.5227C63.2248 35.9686 61.7461 35.97 57.9138 36.5185L58.5042 35.0389C62.0536 34.6929 65.2972 35.6563 67.3025 35.7829C64.1669 34.5031 61.1197 34.4384 58.8968 34.3568C59.291 32.9152 62.0929 30.6438 62.968 29.2809C61.5319 29.745 60.8531 30.527 59.9191 31.1656C59.52 28.8449 58.9164 25.5651 59.9518 23.409C60.6666 21.9168 61.3421 22.1291 62.9794 22.762C64.27 23.2613 65.5376 24.0363 66.2916 24.5201C69.177 26.3738 69.2735 27.1164 71.3393 27.1684V27.1727ZM80.1555 35.278C81.1173 33.5396 84.6193 33.9799 85.0969 36.4004L84.0681 35.6943C82.8806 34.8378 81.5639 34.9011 80.1539 35.278H80.1555ZM67.3826 31.9743C68.1776 30.2584 71.83 30.5608 72.2553 33.1276C71.4342 32.5284 71.2346 32.1684 70.0177 31.8843C69.2375 31.7028 68.2446 31.7 67.3826 31.9743ZM75.0784 45.5718C73.4411 46.6041 70.1927 45.5226 69.4567 43.9797C71.5127 44.4987 72.6675 45.1836 75.0784 45.5718ZM86.7391 32.6606C87.3672 32.0882 87.5177 32.0362 88.5138 31.8266C95.0107 30.4483 94.6295 34.1768 91.4989 35.3132C92.0288 34.5326 92.6749 34.0108 92.5195 32.8842C90.7906 32.3034 88.6365 32.5819 86.7391 32.6606ZM16.9469 32.8463C16.7768 29.6058 19.0079 28.1065 22.6881 28.7957C20.2984 29.5369 19.2597 28.9166 16.9469 32.8463ZM60.7484 27.0826C59.7653 20.7663 66.0659 25.0278 66.9672 27.904C64.728 26.6509 63.7613 25.1389 61.8639 24.8928C61.1949 25.7268 61.419 25.9533 61.1458 26.5454C60.9201 27.0376 61.0281 26.7859 60.7467 27.084L60.7484 27.0826ZM31.3571 27.6087C31.8151 26.4877 32.9666 25.596 34.8951 25.5763C36.6354 25.5595 38.0781 26.4582 38.5606 27.6129C36.0106 26.6227 34.3782 26.2978 31.3571 27.6087ZM23.1739 64.1566C20.1855 65.3845 17.6388 64.1341 17.4278 61.1707C10.4468 61.151 14.8009 53.8699 22.9547 57.1019C30.4902 60.0906 27.8519 67.7374 23.1755 64.1566H23.1739ZM23.398 53.341C25.0353 52.6758 25.8793 52.86 28.974 51.3439L30.5556 53.3242C27.9337 53.5773 26.0183 53.5576 23.398 53.3396V53.341ZM84.3314 52.1188C85.9523 52.0612 85.6988 53.8741 85.3995 54.7798C84.6422 54.3101 84.0075 53.3143 84.3314 52.1188ZM84.7894 51.0556C85.2834 49.9487 87.6502 49.749 88.0689 51.5872C86.2517 51.6955 86.1503 51.7503 84.7894 51.0556ZM43.1748 48.4691C42.5369 49.2483 40.7262 50.1245 39.8299 50.545L39.9149 49.0204L43.1748 48.4691ZM34.8787 50.3439L34.6137 48.2061C35.407 48.3495 36.0793 48.5549 36.8448 48.6885L38.5966 49.0936C38.6326 49.0401 38.7372 49.147 38.801 49.1822C38.7356 55.1497 31.5812 54.6617 30.0568 50.8207C30.5393 50.2933 32.6984 48.8362 33.3412 48.4536L34.8771 50.3439H34.8787ZM83.862 41.8025C85.1296 41.8968 88.8017 42.8813 89.6391 43.5606C87.4801 54.2566 68.7648 53.2609 61.2718 46.3988C58.7071 44.0486 56.8048 40.5677 57.7649 37.292C59.4807 36.579 62.5607 36.5255 64.5742 36.752C66.2769 43.9347 78.6246 47.9234 83.862 41.8039V41.8025ZM30.3021 34.5917C35.214 33.6522 34.7299 37.894 30.1484 38.7913C25.4458 39.7111 24.7278 35.6592 30.3021 34.5917ZM7.6089 19.4723C9.70255 18.613 9.94954 18.9843 12.0759 19.6158C14.7469 20.4104 14.2317 20.1418 16.0669 19.1376C20.9134 16.6665 26.2113 13.7129 33.3641 14.5695C32.2764 12.9169 32.3598 12.9746 33.4082 11.3642C34.4632 9.74535 36.4571 6.97324 37.8605 5.8312C42.4567 2.09708 53.5073 8.8185 55.722 11.1293C60.2511 15.855 53.5204 21.9533 48.8244 20.1095C45.3143 18.7297 41.2643 13.2938 39.0529 10.3347L39.5142 12.8775C34.8395 15.9787 39.2525 16.9647 42.0151 23.3781C42.6841 24.9322 42.779 26.018 43.2893 27.4146C43.6328 28.3513 44.0646 28.2528 44.9757 28.7929C46.5574 29.7296 48.2535 31.3146 49.194 32.8969C50.2752 34.7112 51.1078 39.5564 49.6144 41.2189C47.5895 48.0528 37.4811 49.2426 33.9922 46.6056C36.7336 45.1668 37.8589 45.1499 39.4406 42.7955C41.8679 39.1795 40.7328 34.15 36.0253 32.5059C33.0026 31.4511 28.7531 32.0685 26.0739 33.6381C17.701 38.548 23.0365 48.0697 33.2316 46.6773C32.1292 48.2609 28.7384 50.4142 26.0625 51.4311C19.9778 53.7433 11.1894 52.1821 9.97571 45.3285C9.40486 42.1105 10.5089 38.6971 12.2035 36.5002C11.366 34.2302 10.1115 32.3273 9.43921 29.6114C9.11371 28.295 8.84874 26.6916 9.11862 25.34C9.32962 24.2824 10.2963 23.1896 10.823 22.3232C10.0657 22.7156 9.2462 23.0039 8.60829 23.6875C5.79659 23.1347 1.79248 20.0307 1.32958 17.3852C0.598442 13.2136 2.75098 5.78479 6.05502 3.31366C13.4417 -2.20946 23.5419 3.15332 14.9956 11.2221C12.4194 13.6975 9.28382 16.4471 7.60727 19.4723H7.6089Z"/>
</mask>
<path fill-rule="evenodd" clip-rule="evenodd" d="M54.227 69.0187C52.8923 70.9948 50.0724 71.7641 47.9624 69.2845C46.8747 69.5869 45.5907 70.3759 44.413 69.5771C42.9049 68.5546 43.3384 64.6714 49.4574 63.6081C56.7475 62.3409 60.4392 69.5279 54.2253 69.0187H54.227ZM42.7086 42.3806C43.0652 42.5536 43.5167 42.4467 43.7178 42.1401C43.9207 41.8349 43.7947 41.4467 43.4398 41.2723C43.0848 41.0993 42.6334 41.2076 42.4306 41.5128C42.2294 41.818 42.3537 42.2062 42.7086 42.3806ZM43.0848 38.8166C43.4398 38.9896 43.8912 38.8827 44.094 38.5775C44.2952 38.2709 44.1709 37.8842 43.8143 37.7098C43.4578 37.5354 43.008 37.6437 42.8051 37.9489C42.604 38.2555 42.7283 38.6436 43.0848 38.8166ZM46.9123 40.8574C47.2672 41.0304 47.7187 40.9235 47.9215 40.6183C48.1227 40.3117 47.9984 39.9235 47.6418 39.7505C47.2852 39.5775 46.8354 39.6844 46.6326 39.991C46.4314 40.2976 46.5557 40.6844 46.9123 40.8588V40.8574ZM18.7102 43.8714C19.1191 43.8714 19.4511 44.1569 19.4511 44.5071C19.4511 44.8573 19.1191 45.1443 18.7102 45.1443C18.3012 45.1443 17.9692 44.8601 17.9692 44.5071C17.9692 44.1541 18.3012 43.8714 18.7102 43.8714ZM16.9927 47.1302C17.4016 47.1302 17.7337 47.4157 17.7337 47.7673C17.7337 48.1189 17.4016 48.403 16.9927 48.403C16.5838 48.403 16.2518 48.1175 16.2518 47.7673C16.2518 47.4171 16.5822 47.1302 16.9927 47.1302ZM21.4924 46.9769C21.9013 46.9769 22.2334 47.2624 22.2334 47.614C22.2334 47.9656 21.9013 48.2497 21.4924 48.2497C21.0835 48.2497 20.7515 47.9656 20.7515 47.614C20.7515 47.2624 21.0835 46.9769 21.4924 46.9769ZM81.3267 53.4873C80.8703 53.2763 80.5596 52.8643 80.5596 52.3875C80.5596 52.3157 80.5661 52.2454 80.5792 52.1779L77.8869 52.5126C78.2827 52.7363 78.5461 53.1202 78.5461 53.559C78.5461 54.2482 77.8967 54.8066 77.0952 54.8066C76.2937 54.8066 75.6444 54.2482 75.6444 53.559C75.6444 53.1779 75.8423 52.8375 76.1563 52.6083L73.6652 52.4325C73.7765 52.6083 73.8386 52.8094 73.8386 53.0246C73.8386 53.7137 73.1892 54.2721 72.3878 54.2721C71.5863 54.2721 70.9369 53.7137 70.9369 53.0246C70.9369 52.6603 71.1185 52.3326 71.408 52.1034L68.8695 51.5281C68.9692 51.6983 69.0265 51.891 69.0265 52.0935C69.0265 52.7827 68.3771 53.341 67.5756 53.341C66.7742 53.341 66.1248 52.7827 66.1248 52.0935C66.1248 51.5956 66.4634 51.1667 66.9525 50.9655L64.7721 49.9416C64.7754 49.9754 64.777 50.0092 64.777 50.0443C64.777 50.7335 64.1277 51.2918 63.3262 51.2918C62.9614 51.2918 62.6278 51.1765 62.3742 50.9852C62.6278 51.8615 63.2788 53.1202 63.866 53.6955C64.1309 53.3818 64.5579 53.1779 65.0436 53.1779C65.8451 53.1779 66.4945 53.7362 66.4945 54.4254C66.4945 54.8825 66.2099 55.2805 65.7846 55.4985C65.7257 55.5759 65.6619 55.6575 65.5932 55.7447C66.2508 56.7685 68.5292 58.4844 69.7347 59.2762C70.7488 59.9429 71.0678 60.0273 72.3747 59.3986C72.9717 59.1117 73.8828 58.7334 74.5648 58.348C73.8975 58.2355 73.3937 57.7306 73.3937 57.1244C73.3937 56.4352 74.0431 55.8769 74.8445 55.8769C75.646 55.8769 76.2954 56.4352 76.2954 57.1244C76.2954 57.2102 76.2839 57.2932 76.2659 57.3747C77.8345 56.5055 80.3453 54.635 81.3251 53.4901L81.3267 53.4873ZM69.6349 55.3663C70.4348 55.3663 71.0858 55.9247 71.0858 56.6138C71.0858 57.303 70.4364 57.8614 69.6349 57.8614C68.8335 57.8614 68.1841 57.303 68.1841 56.6138C68.1841 55.9247 68.8335 55.3663 69.6349 55.3663ZM61.9113 49.7743C62.0144 49.3692 62.3497 49.0373 62.7881 48.8868C62.4053 48.3411 62.3137 48.2863 61.5139 48.005C61.5384 48.7026 61.5777 49.23 61.9113 49.7743ZM39.4275 55.7939L39.3212 55.739C40.085 55.1807 41.6831 54.5675 42.6563 53.9922C43.7375 53.3523 44.8677 52.718 45.782 52.0794C45.8916 52.2074 49.8696 61.5266 50.2262 62.5322C47.6058 63.0582 46.3071 63.099 44.1415 65.1074C42.6939 66.4505 41.9775 69.428 44.2314 70.428C45.8753 71.1579 46.6915 70.2578 47.6009 70.428C48.2928 71.0679 51.3597 72.9638 54.3431 70.3661C55.2264 69.5982 54.4053 70.1228 57.8173 69.2437C60.1301 72.0749 65.9858 73.6389 67.2027 69.4702C68.7795 64.6193 61.6137 61.9105 62.5035 57.2242C59.466 62.4872 68.5391 64.1721 65.7061 70.2662C64.849 69.4097 65.1042 68.1411 62.5345 67.6741C64.1326 68.307 64.6871 68.8992 64.5333 70.9357C60.7157 71.2958 60.2004 70.0285 58.2851 68.6755C58.2442 67.2072 58.4405 66.7389 57.5654 65.5265C52.1088 62.1159 53.3323 53.3073 59.8684 46.4438C60.9381 47.6379 59.9011 50.507 63.7482 55.2763C65.2465 57.1328 67.3565 59.6138 70.7112 61.2101C71.1512 61.4197 74.5011 59.4239 75.0703 59.1384C78.3154 57.5112 81.1369 55.206 83.1177 53.2271C83.5038 54.327 84.3036 55.3002 85.2065 55.9922C87.0335 54.9613 86.7653 53.507 86.6557 52.5126L88.8769 52.3861C89.6735 50.794 88.6675 49.8165 86.9828 49.3819C87.5667 48.6365 88.3928 48.0472 89.0895 47.0669C89.6457 46.2849 90.138 45.005 90.7268 44.1921C91.9013 44.6436 92.3478 45.4129 93.5157 45.9417C91.9847 43.6844 90.7399 44.5254 91.0033 42.3637C92.4296 42.7167 93.0102 43.4481 94.3744 43.908C93.7937 42.7744 92.5441 42.3918 91.2781 41.6872C90.8463 39.7224 91.8277 39.2639 92.9039 38.1711C95.099 35.9405 99.8833 30.4722 93.7136 29.7619C87.4424 29.039 86.7031 30.8997 83.8391 29.1093C81.8517 27.866 78.9991 26.7985 76.1253 26.3864C74.5158 26.1558 71.5699 26.3583 70.6441 26.1642C68.2577 25.6635 56.6216 13.592 58.6482 29.738C58.9279 31.9757 59.4039 31.4623 58.2753 33.2176C57.3168 34.707 57.3691 34.6339 55.7367 34.9714C53.3388 35.4651 57.091 35.1064 57.2301 35.0924C56.5137 38.1233 57.2088 36.0853 54.541 38.1233L56.5889 37.5536C56.2552 41.3384 57.2023 42.2934 59.0473 45.6703C54.6245 52.3087 51.7391 55.6181 53.805 62.8402L51.6852 62.6208C50.0151 59.912 46.2907 50.576 45.9015 47.3088C48.5185 45.1682 50.7152 43.6661 51.4284 39.5269C52.1595 35.2752 50.6253 32.0418 48.1292 29.8379C46.3022 28.2247 44.6698 27.5524 44.3639 26.7296C43.0881 23.2993 42.972 21.4034 40.0687 17.8071C38.4559 15.8085 37.9521 15.7354 39.9836 13.8325C40.8178 14.2952 41.9873 16.0111 42.9327 16.9675C43.973 18.0195 44.9969 19.125 46.1157 19.8535C53.9424 24.9533 60.3934 16.5807 57.9252 12.0421C55.9412 8.39375 48.9667 5.60617 44.66 4.26864C40.4351 2.95642 37.6904 3.2574 33.827 8.68911C32.8374 10.0829 31.8086 12.0097 30.8124 13.2812C26.6611 13.5174 22.9858 14.6173 19.7586 16.0392C11.5051 19.6763 16.8831 19.5075 10.0886 18.0336C10.9326 16.2108 13.5611 14.2319 15.0087 12.8902C25.912 2.79749 14.2252 -3.60607 5.80313 2.23773C0.559186 5.87621 -1.61788 15.907 1.3165 20.1334C2.48764 21.8197 5.90127 24.063 7.96875 24.7184C7.6318 28.2753 8.48889 31.0826 9.74999 34.0263C10.7347 36.3216 11.1796 35.5677 10.0886 37.683C9.48992 38.842 9.0074 40.3018 8.80784 41.7069C7.80845 48.7293 12.1691 52.8755 19.613 53.4353L19.6834 55.4549C13.7999 54.8431 9.72055 60.7966 16.3646 62.0652C18.8868 67.1706 21.9733 64.8809 23.5893 65.4562C24.8913 65.9203 26.3095 66.5054 27.7374 65.0497C31.2917 61.9963 27.2745 58.5758 26.3553 57.7249C33.3461 57.8501 30.5442 57.694 36.1545 56.8768L36.0449 57.1975C35.7571 57.6223 35.5935 58.1159 35.5935 58.6419C35.5935 60.2312 37.0918 61.5181 38.9401 61.5181C40.7884 61.5181 42.285 60.2298 42.285 58.6419C42.285 57.1947 41.0435 55.9978 39.4259 55.7953L39.4275 55.7939ZM71.3393 27.1727L72.7509 27.16C72.8539 31.8097 74.8135 27.3203 76.562 27.3513C76.9153 27.9842 76.6438 28.3372 76.4933 29.2148C76.0811 31.6114 77.069 31.7872 78.4365 29.7043C80.692 26.2669 80.4287 29.3808 80.5481 31.0812C82.156 30.994 81.7765 30.4047 82.8266 29.6185C85.8395 31.3484 84.7027 30.7703 88.8164 30.5608C89.9597 30.5017 91.193 30.4426 92.3674 30.5045C95.2675 30.6564 96.3863 30.9912 95.1742 33.5804C94.1536 35.7604 91.7344 37.9868 90.7841 38.8307L89.6457 36.0656H89.2711C89.4052 37.7927 90.1462 39.299 89.9843 41.1513C87.6371 39.8869 85.357 39.8715 83.0883 40.1035C84.7289 40.0585 90.367 40.3089 89.9417 42.8883C87.5357 42.1626 86.1977 41.1499 83.0981 40.773C80.0869 43.998 75.5904 43.9544 73.572 43.0936C74.7513 39.8912 74.2492 40.2231 75.9126 39.9446C81.927 38.939 75.7949 35.8125 71.8251 36.4749C71.0187 38.0853 72.5857 39.1401 73.8631 39.7772L72.8392 42.8517C71.9478 43.9558 62.4985 36.8786 66.9574 36.5227C63.2248 35.9686 61.7461 35.97 57.9138 36.5185L58.5042 35.0389C62.0536 34.6929 65.2972 35.6563 67.3025 35.7829C64.1669 34.5031 61.1197 34.4384 58.8968 34.3568C59.291 32.9152 62.0929 30.6438 62.968 29.2809C61.5319 29.745 60.8531 30.527 59.9191 31.1656C59.52 28.8449 58.9164 25.5651 59.9518 23.409C60.6666 21.9168 61.3421 22.1291 62.9794 22.762C64.27 23.2613 65.5376 24.0363 66.2916 24.5201C69.177 26.3738 69.2735 27.1164 71.3393 27.1684V27.1727ZM80.1555 35.278C81.1173 33.5396 84.6193 33.9799 85.0969 36.4004L84.0681 35.6943C82.8806 34.8378 81.5639 34.9011 80.1539 35.278H80.1555ZM67.3826 31.9743C68.1776 30.2584 71.83 30.5608 72.2553 33.1276C71.4342 32.5284 71.2346 32.1684 70.0177 31.8843C69.2375 31.7028 68.2446 31.7 67.3826 31.9743ZM75.0784 45.5718C73.4411 46.6041 70.1927 45.5226 69.4567 43.9797C71.5127 44.4987 72.6675 45.1836 75.0784 45.5718ZM86.7391 32.6606C87.3672 32.0882 87.5177 32.0362 88.5138 31.8266C95.0107 30.4483 94.6295 34.1768 91.4989 35.3132C92.0288 34.5326 92.6749 34.0108 92.5195 32.8842C90.7906 32.3034 88.6365 32.5819 86.7391 32.6606ZM16.9469 32.8463C16.7768 29.6058 19.0079 28.1065 22.6881 28.7957C20.2984 29.5369 19.2597 28.9166 16.9469 32.8463ZM60.7484 27.0826C59.7653 20.7663 66.0659 25.0278 66.9672 27.904C64.728 26.6509 63.7613 25.1389 61.8639 24.8928C61.1949 25.7268 61.419 25.9533 61.1458 26.5454C60.9201 27.0376 61.0281 26.7859 60.7467 27.084L60.7484 27.0826ZM31.3571 27.6087C31.8151 26.4877 32.9666 25.596 34.8951 25.5763C36.6354 25.5595 38.0781 26.4582 38.5606 27.6129C36.0106 26.6227 34.3782 26.2978 31.3571 27.6087ZM23.1739 64.1566C20.1855 65.3845 17.6388 64.1341 17.4278 61.1707C10.4468 61.151 14.8009 53.8699 22.9547 57.1019C30.4902 60.0906 27.8519 67.7374 23.1755 64.1566H23.1739ZM23.398 53.341C25.0353 52.6758 25.8793 52.86 28.974 51.3439L30.5556 53.3242C27.9337 53.5773 26.0183 53.5576 23.398 53.3396V53.341ZM84.3314 52.1188C85.9523 52.0612 85.6988 53.8741 85.3995 54.7798C84.6422 54.3101 84.0075 53.3143 84.3314 52.1188ZM84.7894 51.0556C85.2834 49.9487 87.6502 49.749 88.0689 51.5872C86.2517 51.6955 86.1503 51.7503 84.7894 51.0556ZM43.1748 48.4691C42.5369 49.2483 40.7262 50.1245 39.8299 50.545L39.9149 49.0204L43.1748 48.4691ZM34.8787 50.3439L34.6137 48.2061C35.407 48.3495 36.0793 48.5549 36.8448 48.6885L38.5966 49.0936C38.6326 49.0401 38.7372 49.147 38.801 49.1822C38.7356 55.1497 31.5812 54.6617 30.0568 50.8207C30.5393 50.2933 32.6984 48.8362 33.3412 48.4536L34.8771 50.3439H34.8787ZM83.862 41.8025C85.1296 41.8968 88.8017 42.8813 89.6391 43.5606C87.4801 54.2566 68.7648 53.2609 61.2718 46.3988C58.7071 44.0486 56.8048 40.5677 57.7649 37.292C59.4807 36.579 62.5607 36.5255 64.5742 36.752C66.2769 43.9347 78.6246 47.9234 83.862 41.8039V41.8025ZM30.3021 34.5917C35.214 33.6522 34.7299 37.894 30.1484 38.7913C25.4458 39.7111 24.7278 35.6592 30.3021 34.5917ZM7.6089 19.4723C9.70255 18.613 9.94954 18.9843 12.0759 19.6158C14.7469 20.4104 14.2317 20.1418 16.0669 19.1376C20.9134 16.6665 26.2113 13.7129 33.3641 14.5695C32.2764 12.9169 32.3598 12.9746 33.4082 11.3642C34.4632 9.74535 36.4571 6.97324 37.8605 5.8312C42.4567 2.09708 53.5073 8.8185 55.722 11.1293C60.2511 15.855 53.5204 21.9533 48.8244 20.1095C45.3143 18.7297 41.2643 13.2938 39.0529 10.3347L39.5142 12.8775C34.8395 15.9787 39.2525 16.9647 42.0151 23.3781C42.6841 24.9322 42.779 26.018 43.2893 27.4146C43.6328 28.3513 44.0646 28.2528 44.9757 28.7929C46.5574 29.7296 48.2535 31.3146 49.194 32.8969C50.2752 34.7112 51.1078 39.5564 49.6144 41.2189C47.5895 48.0528 37.4811 49.2426 33.9922 46.6056C36.7336 45.1668 37.8589 45.1499 39.4406 42.7955C41.8679 39.1795 40.7328 34.15 36.0253 32.5059C33.0026 31.4511 28.7531 32.0685 26.0739 33.6381C17.701 38.548 23.0365 48.0697 33.2316 46.6773C32.1292 48.2609 28.7384 50.4142 26.0625 51.4311C19.9778 53.7433 11.1894 52.1821 9.97571 45.3285C9.40486 42.1105 10.5089 38.6971 12.2035 36.5002C11.366 34.2302 10.1115 32.3273 9.43921 29.6114C9.11371 28.295 8.84874 26.6916 9.11862 25.34C9.32962 24.2824 10.2963 23.1896 10.823 22.3232C10.0657 22.7156 9.2462 23.0039 8.60829 23.6875C5.79659 23.1347 1.79248 20.0307 1.32958 17.3852C0.598442 13.2136 2.75098 5.78479 6.05502 3.31366C13.4417 -2.20946 23.5419 3.15332 14.9956 11.2221C12.4194 13.6975 9.28382 16.4471 7.60727 19.4723H7.6089Z" fill="#1A365E" stroke="#1A365E" stroke-width="0.6" mask="url(#path-1-inside-1_821_2768)"/>
</svg>
